<svg xmlns="http://www.w3.org/2000/svg" xmlns:xlink="http://www.w3.org/1999/xlink" width="500" zoomAndPan="magnify" viewBox="0 0 375 374.999991" height="500" preserveAspectRatio="xMidYMid meet" version="1.0"><defs><clipPath id="c1d2b8a804"><path d="M 322 259 L 336 259 L 336 272 L 322 272 Z M 322 259 " clip-rule="nonzero"/></clipPath><clipPath id="e9ba2d7945"><path d="M 78.128906 431.253906 L -27.59375 69.613281 L 351.035156 -41.074219 L 456.757812 320.566406 Z M 78.128906 431.253906 " clip-rule="nonzero"/></clipPath><clipPath id="ef7ee3924d"><path d="M 78.128906 431.253906 L -27.59375 69.613281 L 351.035156 -41.074219 L 456.757812 320.566406 Z M 78.128906 431.253906 " clip-rule="nonzero"/></clipPath><clipPath id="2be064fdd6"><path d="M 8 30 L 363 30 L 363 325 L 8 325 Z M 8 30 " clip-rule="nonzero"/></clipPath><clipPath id="3967e38a21"><path d="M 78.128906 431.253906 L -27.59375 69.613281 L 351.035156 -41.074219 L 456.757812 320.566406 Z M 78.128906 431.253906 " clip-rule="nonzero"/></clipPath><clipPath id="45835be281"><path d="M 78.128906 431.253906 L -27.59375 69.613281 L 351.035156 -41.074219 L 456.757812 320.566406 Z M 78.128906 431.253906 " clip-rule="nonzero"/></clipPath><clipPath id="14cd630f32"><path d="M 66.144531 390.257812 L -27.535156 69.820312 L 292.230469 -23.660156 L 385.910156 296.777344 Z M 66.144531 390.257812 " clip-rule="nonzero"/></clipPath><clipPath id="f7666f80f4"><path d="M 66.144531 390.257812 L -27.523438 69.863281 L 292.242188 -23.617188 L 385.910156 296.777344 Z M 66.144531 390.257812 " clip-rule="nonzero"/></clipPath><clipPath id="d7fe6f1bad"><path d="M 364 292 L 372 292 L 372 301 L 364 301 Z M 364 292 " clip-rule="nonzero"/></clipPath><clipPath id="5732deb778"><path d="M 78.128906 431.253906 L -27.59375 69.613281 L 351.035156 -41.074219 L 456.757812 320.566406 Z M 78.128906 431.253906 " clip-rule="nonzero"/></clipPath><clipPath id="7ddef794ff"><path d="M 78.128906 431.253906 L -27.59375 69.613281 L 351.035156 -41.074219 L 456.757812 320.566406 Z M 78.128906 431.253906 " clip-rule="nonzero"/></clipPath><clipPath id="a8c02996fd"><path d="M 370 264 L 375 264 L 375 272 L 370 272 Z M 370 264 " clip-rule="nonzero"/></clipPath><clipPath id="f0c893f2c1"><path d="M 78.128906 431.253906 L -27.59375 69.613281 L 351.035156 -41.074219 L 456.757812 320.566406 Z M 78.128906 431.253906 " clip-rule="nonzero"/></clipPath><clipPath id="6ae4268339"><path d="M 78.128906 431.253906 L -27.59375 69.613281 L 351.035156 -41.074219 L 456.757812 320.566406 Z M 78.128906 431.253906 " clip-rule="nonzero"/></clipPath><clipPath id="24d40d6fa3"><path d="M 58 93 L 248 93 L 248 166 L 58 166 Z M 58 93 " clip-rule="nonzero"/></clipPath><clipPath id="71ffa1f273"><path d="M 74.457031 63.398438 L 283.699219 168.886719 L 229.054688 277.269531 L 19.816406 171.78125 Z M 74.457031 63.398438 " clip-rule="nonzero"/></clipPath><clipPath id="fb32b6aee0"><path d="M 74.457031 63.398438 L 283.699219 168.886719 L 229.054688 277.269531 L 19.816406 171.78125 Z M 74.457031 63.398438 " clip-rule="nonzero"/></clipPath><clipPath id="3756fe889a"><path d="M 204 263 L 205 263 L 205 264 L 204 264 Z M 204 263 " clip-rule="nonzero"/></clipPath><clipPath id="c65415d0a6"><path d="M 74.457031 63.398438 L 283.699219 168.886719 L 229.054688 277.269531 L 19.816406 171.78125 Z M 74.457031 63.398438 " clip-rule="nonzero"/></clipPath><clipPath id="2d3b14875e"><path d="M 74.457031 63.398438 L 283.699219 168.886719 L 229.054688 277.269531 L 19.816406 171.78125 Z M 74.457031 63.398438 " clip-rule="nonzero"/></clipPath><clipPath id="e2179b38c4"><path d="M 63 116 L 211 116 L 211 266 L 63 266 Z M 63 116 " clip-rule="nonzero"/></clipPath><clipPath id="0efc294556"><path d="M 74.457031 63.398438 L 283.699219 168.886719 L 229.054688 277.269531 L 19.816406 171.78125 Z M 74.457031 63.398438 " clip-rule="nonzero"/></clipPath><clipPath id="f0fe9bf104"><path d="M 74.457031 63.398438 L 283.699219 168.886719 L 229.054688 277.269531 L 19.816406 171.78125 Z M 74.457031 63.398438 " clip-rule="nonzero"/></clipPath><clipPath id="b7d8f90825"><path d="M 204 263 L 205 263 L 205 264 L 204 264 Z M 204 263 " clip-rule="nonzero"/></clipPath><clipPath id="f1390ef88e"><path d="M 74.457031 63.398438 L 283.699219 168.886719 L 229.054688 277.269531 L 19.816406 171.78125 Z M 74.457031 63.398438 " clip-rule="nonzero"/></clipPath><clipPath id="9167e8fb45"><path d="M 74.457031 63.398438 L 283.699219 168.886719 L 229.054688 277.269531 L 19.816406 171.78125 Z M 74.457031 63.398438 " clip-rule="nonzero"/></clipPath><clipPath id="63547a342d"><path d="M 204 263 L 205 263 L 205 265 L 204 265 Z M 204 263 " clip-rule="nonzero"/></clipPath><clipPath id="9f30a898f5"><path d="M 74.457031 63.398438 L 283.699219 168.886719 L 229.054688 277.269531 L 19.816406 171.78125 Z M 74.457031 63.398438 " clip-rule="nonzero"/></clipPath><clipPath id="b1079471f5"><path d="M 74.457031 63.398438 L 283.699219 168.886719 L 229.054688 277.269531 L 19.816406 171.78125 Z M 74.457031 63.398438 " clip-rule="nonzero"/></clipPath><clipPath id="05fb35433e"><path d="M 204 263 L 205 263 L 205 264 L 204 264 Z M 204 263 " clip-rule="nonzero"/></clipPath><clipPath id="633e0379ac"><path d="M 74.457031 63.398438 L 283.699219 168.886719 L 229.054688 277.269531 L 19.816406 171.78125 Z M 74.457031 63.398438 " clip-rule="nonzero"/></clipPath><clipPath id="0725f26b4e"><path d="M 74.457031 63.398438 L 283.699219 168.886719 L 229.054688 277.269531 L 19.816406 171.78125 Z M 74.457031 63.398438 " clip-rule="nonzero"/></clipPath><clipPath id="ebeecd5858"><path d="M 67 130 L 129 130 L 129 184 L 67 184 Z M 67 130 " clip-rule="nonzero"/></clipPath><clipPath id="ec39ce5d07"><path d="M 74.457031 63.398438 L 283.699219 168.886719 L 229.054688 277.269531 L 19.816406 171.78125 Z M 74.457031 63.398438 " clip-rule="nonzero"/></clipPath><clipPath id="8f66bbf396"><path d="M 74.457031 63.398438 L 283.699219 168.886719 L 229.054688 277.269531 L 19.816406 171.78125 Z M 74.457031 63.398438 " clip-rule="nonzero"/></clipPath><clipPath id="08d70ab599"><path d="M 156 153 L 256 153 L 256 229 L 156 229 Z M 156 153 " clip-rule="nonzero"/></clipPath><clipPath id="f79c180394"><path d="M 74.457031 63.398438 L 283.699219 168.886719 L 229.054688 277.269531 L 19.816406 171.78125 Z M 74.457031 63.398438 " clip-rule="nonzero"/></clipPath><clipPath id="79f11507af"><path d="M 74.457031 63.398438 L 283.699219 168.886719 L 229.054688 277.269531 L 19.816406 171.78125 Z M 74.457031 63.398438 " clip-rule="nonzero"/></clipPath><clipPath id="acb4ef4a93"><path d="M 159 169 L 204 169 L 204 210 L 159 210 Z M 159 169 " clip-rule="nonzero"/></clipPath><clipPath id="d2868e9f81"><path d="M 74.457031 63.398438 L 283.699219 168.886719 L 229.054688 277.269531 L 19.816406 171.78125 Z M 74.457031 63.398438 " clip-rule="nonzero"/></clipPath><clipPath id="81064a53e7"><path d="M 74.457031 63.398438 L 283.699219 168.886719 L 229.054688 277.269531 L 19.816406 171.78125 Z M 74.457031 63.398438 " clip-rule="nonzero"/></clipPath><clipPath id="5f230cbf04"><path d="M 223 171 L 260 171 L 260 182 L 223 182 Z M 223 171 " clip-rule="nonzero"/></clipPath><clipPath id="7cd2a394cb"><path d="M 74.457031 63.398438 L 283.699219 168.886719 L 229.054688 277.269531 L 19.816406 171.78125 Z M 74.457031 63.398438 " clip-rule="nonzero"/></clipPath><clipPath id="264cf08fa8"><path d="M 74.457031 63.398438 L 283.699219 168.886719 L 229.054688 277.269531 L 19.816406 171.78125 Z M 74.457031 63.398438 " clip-rule="nonzero"/></clipPath><clipPath id="ad4d85cc34"><path d="M 185 210 L 233 210 L 233 249 L 185 249 Z M 185 210 " clip-rule="nonzero"/></clipPath><clipPath id="6e4303c6ef"><path d="M 74.457031 63.398438 L 283.699219 168.886719 L 229.054688 277.269531 L 19.816406 171.78125 Z M 74.457031 63.398438 " clip-rule="nonzero"/></clipPath><clipPath id="cc010fa01f"><path d="M 74.457031 63.398438 L 283.699219 168.886719 L 229.054688 277.269531 L 19.816406 171.78125 Z M 74.457031 63.398438 " clip-rule="nonzero"/></clipPath><clipPath id="8e613f182f"><path d="M 371 231.148438 L 375 231.148438 L 375 242 L 371 242 Z M 371 231.148438 " clip-rule="nonzero"/></clipPath><clipPath id="a359c4e536"><path d="M 376.273438 235.726562 C 375.824219 241.050781 375.300781 241.5 374.773438 241.648438 C 374.175781 241.875 373.050781 241.726562 372.523438 241.351562 C 371.925781 240.976562 371.625 240.226562 371.398438 239.324219 C 371.023438 237.824219 370.949219 233.925781 371.851562 232.800781 C 372.449219 232.050781 374.101562 231.75 374.851562 231.976562 C 375.523438 232.199219 376.273438 233.175781 376.425781 233.851562 C 376.574219 234.523438 376.273438 235.648438 375.824219 236.175781 C 375.375 236.699219 374.25 237.148438 373.5 237 C 372.824219 236.851562 371.773438 236.175781 371.550781 235.5 C 371.25 234.75 371.625 233.023438 372.226562 232.425781 C 372.75 231.898438 373.949219 231.675781 374.625 231.898438 C 375.375 232.199219 376.199219 233.324219 376.5 234.375 C 376.949219 235.875 376.726562 239.25 376.125 240.449219 C 375.824219 241.125 375.300781 241.5 374.773438 241.648438 C 374.175781 241.875 373.050781 241.726562 372.523438 241.351562 C 371.925781 240.976562 371.550781 240.226562 371.398438 239.324219 C 371.175781 238.050781 371.324219 235.050781 372.148438 234.148438 C 372.75 233.476562 374.101562 233.175781 374.773438 233.476562 C 375.449219 233.773438 376.273438 235.726562 376.273438 235.726562 " clip-rule="nonzero"/></clipPath><clipPath id="a56f096a82"><path d="M 363 291.148438 L 373 291.148438 L 373 302.398438 L 363 302.398438 Z M 363 291.148438 " clip-rule="nonzero"/></clipPath><clipPath id="4987965956"><path d="M 366.074219 295.125 C 366.976562 293.925781 368.476562 296.398438 368.699219 296.25 C 368.925781 296.175781 368.023438 293.851562 368.101562 293.851562 C 368.175781 293.851562 369 295.425781 369 296.25 C 369 297 368.550781 298.574219 368.324219 298.574219 C 368.023438 298.574219 367.273438 296.101562 367.425781 296.023438 C 367.574219 295.949219 369.300781 297.601562 369.148438 297.976562 C 369 298.273438 367.199219 298.5 366.898438 298.125 C 366.375 297.523438 367.5 294.074219 368.25 293.175781 C 368.699219 292.648438 369.226562 292.425781 369.824219 292.425781 C 370.5 292.425781 371.699219 292.726562 372.226562 293.324219 C 372.75 293.851562 372.976562 295.050781 372.824219 295.800781 C 372.675781 296.550781 371.851562 297.523438 371.101562 297.75 C 370.425781 297.976562 369.148438 297.824219 368.550781 297.375 C 367.949219 296.925781 367.425781 295.800781 367.425781 295.050781 C 367.425781 294.449219 367.648438 293.851562 368.023438 293.398438 C 368.398438 292.949219 368.925781 292.574219 369.523438 292.5 C 370.351562 292.425781 372.074219 292.949219 372.601562 293.851562 C 373.351562 295.199219 372.449219 299.625 371.398438 300.976562 C 370.726562 301.875 369.375 302.175781 368.398438 302.25 C 367.574219 302.324219 366.824219 302.175781 366.074219 301.800781 C 365.25 301.351562 364.050781 300.375 363.824219 299.550781 C 363.675781 298.800781 364.648438 297.976562 364.648438 297.148438 C 364.648438 296.25 363.449219 295.125 363.675781 294.300781 C 363.898438 293.398438 365.476562 292.351562 366.375 291.976562 C 367.125 291.675781 367.949219 291.601562 368.625 291.898438 C 369.523438 292.351562 370.875 294.074219 371.023438 295.050781 C 371.175781 295.800781 370.726562 296.550781 370.351562 297.074219 C 370.050781 297.523438 369.523438 297.976562 369 298.125 C 368.476562 298.273438 367.800781 298.199219 367.351562 297.976562 C 366.898438 297.75 366.375 297.226562 366.148438 296.773438 C 365.925781 296.324219 366.074219 295.125 366.074219 295.125 " clip-rule="nonzero"/></clipPath><clipPath id="f0f661c409"><path d="M 367 262 L 375 262 L 375 275 L 367 275 Z M 367 262 " clip-rule="nonzero"/></clipPath><clipPath id="f8d2f1d945"><path d="M 372.449219 268.125 C 372.375 270.300781 374.550781 271.050781 374.476562 271.199219 C 374.398438 271.425781 372.148438 271.273438 371.550781 270.75 C 370.949219 270.226562 370.875 269.25 370.800781 268.273438 C 370.648438 266.925781 370.425781 264.074219 371.175781 263.175781 C 371.773438 262.425781 373.351562 262.199219 374.175781 262.425781 C 374.925781 262.648438 375.75 263.625 375.898438 264.375 C 376.050781 265.125 375.75 266.25 375.300781 266.773438 C 374.851562 267.375 373.648438 267.75 372.976562 267.75 C 372.375 267.75 371.699219 267.523438 371.324219 267.074219 C 370.800781 266.550781 370.351562 265.351562 370.5 264.601562 C 370.726562 263.773438 372.074219 262.425781 372.898438 262.273438 C 373.648438 262.125 374.773438 262.648438 375.300781 263.25 C 375.824219 263.851562 376.050781 265.050781 375.898438 265.726562 C 375.824219 266.324219 375.375 266.851562 374.925781 267.226562 C 374.476562 267.523438 373.875 267.824219 373.273438 267.75 C 372.523438 267.675781 371.398438 267.226562 370.949219 266.625 C 370.5 265.949219 370.425781 264.523438 370.800781 263.773438 C 371.101562 263.101562 372.148438 262.351562 372.898438 262.273438 C 373.726562 262.199219 375.074219 262.800781 375.675781 263.773438 C 376.574219 265.273438 376.425781 269.625 375.976562 271.5 C 375.675781 272.773438 375.148438 274.125 374.25 274.425781 C 372.976562 274.875 369.523438 273.300781 368.476562 272.175781 C 367.648438 271.351562 367.574219 269.925781 367.5 268.949219 C 367.425781 268.125 367.574219 267.300781 367.949219 266.699219 C 368.324219 266.101562 369.074219 265.5 369.675781 265.351562 C 370.351562 265.199219 371.324219 265.574219 371.773438 266.023438 C 372.226562 266.476562 372.449219 268.125 372.449219 268.125 " clip-rule="nonzero"/></clipPath></defs><g clip-path="url(#c1d2b8a804)"><g clip-path="url(#e9ba2d7945)"><g clip-path="url(#ef7ee3924d)"><path fill="#00ff66" d="M 325.996094 271.058594 C 329.082031 272.753906 332.957031 271.621094 334.648438 268.527344 C 336.339844 265.433594 335.203125 261.554688 332.117188 259.859375 C 329.027344 258.164062 325.152344 259.296875 323.460938 262.390625 C 321.769531 265.484375 322.90625 269.363281 325.996094 271.058594 " fill-opacity="1" fill-rule="nonzero"/></g></g></g><g clip-path="url(#2be064fdd6)"><g clip-path="url(#3967e38a21)"><g clip-path="url(#45835be281)"><g clip-path="url(#14cd630f32)"><g clip-path="url(#f7666f80f4)"><path fill="#00ff66" d="M 120.988281 40.558594 C 124.457031 42.117188 127.871094 44.257812 131.425781 47.097656 L 278.410156 172.144531 L 223.289062 272.976562 L 38.996094 216.300781 C 34.671875 214.828125 31.015625 213.09375 27.820312 210.996094 C 19.421875 205.484375 -0.246094 192.578125 45.0625 109.683594 C 90.378906 26.785156 111.828125 36.4375 120.988281 40.558594 Z M 294.511719 168.589844 L 303.878906 173.730469 C 305.996094 174.894531 306.835938 177.753906 305.675781 179.875 L 244.480469 291.828125 C 243.902344 292.886719 242.945312 293.660156 241.785156 293.996094 C 240.625 294.335938 239.402344 294.203125 238.34375 293.621094 L 228.972656 288.480469 C 227.914062 287.902344 227.148438 286.941406 226.808594 285.78125 C 226.46875 284.621094 226.597656 283.398438 227.179688 282.339844 L 288.375 170.386719 C 288.953125 169.328125 289.910156 168.554688 291.070312 168.214844 C 292.230469 167.875 293.453125 168.011719 294.511719 168.589844 Z M 332.414062 186.078125 L 330.429688 189.707031 L 264.101562 311.046875 L 249.640625 297.535156 L 313.253906 181.15625 Z M 352.128906 249.371094 C 349.070312 247.828125 345.324219 248.957031 343.671875 251.984375 C 341.980469 255.078125 343.113281 258.957031 346.203125 260.652344 C 346.820312 260.992188 347.46875 261.1875 348.125 261.304688 C 346.554688 265.191406 344.734375 269.070312 342.636719 272.910156 C 340.824219 276.226562 338.863281 279.410156 336.777344 282.449219 C 336.300781 281.902344 335.734375 281.414062 335.058594 281.042969 C 331.96875 279.347656 328.09375 280.480469 326.40625 283.570312 C 324.714844 286.664062 325.847656 290.542969 328.9375 292.238281 C 328.996094 292.269531 329.054688 292.28125 329.109375 292.3125 C 322.007812 300.386719 313.949219 306.917969 305.402344 311.386719 C 292.660156 318.050781 280.265625 319.382812 270.070312 315.269531 L 304.625 252.058594 L 339.179688 188.84375 C 354.402344 199.699219 359 223.738281 352.128906 249.371094 Z M 23.847656 217.074219 C 27.5625 219.511719 31.753906 221.507812 36.769531 223.214844 L 220.445312 279.703125 C 219.296875 282.261719 219.046875 285.097656 219.839844 287.816406 C 220.722656 290.84375 222.730469 293.34375 225.492188 294.855469 L 234.859375 299.996094 C 237.335938 301.351562 240.144531 301.71875 242.878906 301.152344 L 262.566406 319.554688 C 262.785156 319.757812 263.027344 319.925781 263.28125 320.066406 C 263.289062 320.070312 263.292969 320.082031 263.300781 320.085938 C 276.253906 327.191406 292.398438 326.390625 308.769531 317.832031 C 324.652344 309.523438 338.945312 294.8125 349.007812 276.402344 C 362.09375 252.460938 365.398438 226.765625 359.707031 207.300781 C 356.253906 195.492188 349.488281 185.96875 339.582031 180.539062 C 339.570312 180.53125 339.558594 180.527344 339.546875 180.523438 C 339.476562 180.484375 339.398438 180.460938 339.324219 180.429688 C 339.160156 180.355469 338.996094 180.285156 338.824219 180.234375 C 338.792969 180.226562 338.769531 180.210938 338.738281 180.203125 L 312.65625 173.5 C 311.660156 170.890625 309.839844 168.714844 307.363281 167.359375 L 297.996094 162.21875 C 295.234375 160.703125 292.050781 160.355469 289.03125 161.238281 C 286.3125 162.035156 284.0625 163.773438 282.53125 166.121094 L 136.082031 41.527344 C 136.058594 41.5 136.027344 41.480469 136 41.457031 C 131.945312 38.210938 128.007812 35.75 123.957031 33.925781 C 105.792969 25.757812 81.464844 27.949219 38.695312 106.1875 C -4.074219 184.429688 7.195312 206.144531 23.847656 217.074219 " fill-opacity="1" fill-rule="nonzero"/></g></g></g></g></g><g clip-path="url(#d7fe6f1bad)"><g clip-path="url(#5732deb778)"><g clip-path="url(#7ddef794ff)"><path fill="#00ff66" d="M 371.472656 295.347656 C 371.207031 294.441406 370.578125 293.664062 369.730469 293.179688 C 369.308594 292.949219 368.839844 292.808594 368.375 292.769531 C 367.902344 292.707031 367.433594 292.742188 366.96875 292.878906 C 366.738281 292.945312 366.511719 293.035156 366.292969 293.152344 C 366.097656 293.257812 365.910156 293.390625 365.703125 293.550781 C 365.523438 293.703125 365.363281 293.851562 365.21875 294.042969 C 365.042969 294.222656 364.929688 294.433594 364.804688 294.621094 C 363.886719 296.304688 364.574219 298.652344 366.246094 299.550781 C 366.457031 299.664062 366.667969 299.78125 366.910156 299.835938 C 367.136719 299.921875 367.351562 299.960938 367.585938 299.992188 C 367.847656 300.019531 368.074219 300.027344 368.296875 300.011719 C 368.539062 299.964844 368.777344 299.921875 369.007812 299.855469 C 369.472656 299.71875 369.894531 299.519531 370.257812 299.210938 C 370.628906 298.925781 370.949219 298.554688 371.171875 298.113281 C 371.632812 297.269531 371.746094 296.277344 371.472656 295.347656 " fill-opacity="1" fill-rule="nonzero"/></g></g></g><g clip-path="url(#a8c02996fd)"><g clip-path="url(#f0c893f2c1)"><g clip-path="url(#6ae4268339)"><path fill="#00ff66" d="M 371.4375 264.964844 C 371.257812 265.117188 371.074219 265.273438 370.929688 265.464844 C 370.777344 265.636719 370.632812 265.828125 370.515625 266.039062 C 370.402344 266.25 370.316406 266.476562 370.257812 266.695312 C 370.167969 266.925781 370.136719 267.160156 370.105469 267.398438 C 370.074219 267.632812 370.074219 267.886719 370.089844 268.109375 C 370.125 268.578125 370.261719 269.042969 370.488281 269.480469 C 370.597656 269.675781 370.734375 269.890625 370.886719 270.070312 C 371.042969 270.253906 371.195312 270.4375 371.390625 270.582031 C 371.5625 270.734375 371.753906 270.878906 371.957031 270.972656 C 372.167969 271.085938 372.402344 271.195312 372.621094 271.257812 C 372.847656 271.339844 373.085938 271.375 373.320312 271.40625 C 373.554688 271.4375 373.785156 271.445312 374.03125 271.425781 C 374.269531 271.378906 374.488281 271.34375 374.71875 271.273438 C 375.648438 271.003906 376.429688 270.394531 376.882812 269.53125 C 377.109375 269.109375 377.257812 268.664062 377.320312 268.191406 C 377.363281 267.722656 377.320312 267.234375 377.183594 266.765625 C 377.046875 266.300781 376.824219 265.886719 376.539062 265.515625 C 376.230469 265.152344 375.859375 264.832031 375.441406 264.601562 C 375.019531 264.371094 374.574219 264.222656 374.105469 264.183594 C 373.636719 264.117188 373.144531 264.160156 372.679688 264.296875 C 372.445312 264.363281 372.246094 264.449219 372.027344 264.5625 C 371.808594 264.679688 371.617188 264.808594 371.4375 264.964844 " fill-opacity="1" fill-rule="nonzero"/></g></g></g><g clip-path="url(#24d40d6fa3)"><g clip-path="url(#71ffa1f273)"><g clip-path="url(#fb32b6aee0)"><path fill="#00ff66" d="M 60.363281 98.3125 C 59.183594 97.714844 58.707031 96.269531 59.304688 95.089844 C 59.898438 93.90625 61.34375 93.429688 62.527344 94.023438 C 63.707031 94.621094 64.183594 96.066406 63.585938 97.246094 C 62.992188 98.429688 61.546875 98.90625 60.363281 98.3125 Z M 63.832031 98.195312 L 115.390625 124.1875 L 121.378906 142.382812 L 136.636719 150.078125 L 160.363281 142.242188 L 207.414062 165.964844 L 242.636719 154.335938 C 243.308594 155.347656 244.59375 155.828125 245.800781 155.429688 C 247.253906 154.949219 248.042969 153.386719 247.5625 151.933594 C 247.085938 150.480469 245.523438 149.691406 244.070312 150.171875 C 242.863281 150.570312 242.117188 151.722656 242.175781 152.9375 L 207.53125 164.375 L 160.480469 140.65625 L 136.757812 148.488281 L 122.585938 141.34375 L 116.597656 123.148438 L 64.496094 96.878906 C 64.816406 95.503906 64.175781 94.03125 62.859375 93.367188 C 61.316406 92.589844 59.425781 93.210938 58.648438 94.757812 C 57.867188 96.300781 58.492188 98.191406 60.03125 98.96875 C 61.351562 99.632812 62.914062 99.273438 63.832031 98.195312 " fill-opacity="1" fill-rule="nonzero"/></g></g></g><g clip-path="url(#3756fe889a)"><g clip-path="url(#c65415d0a6)"><g clip-path="url(#2d3b14875e)"><path fill="#00ff66" d="M 204.695312 263.976562 L 204.691406 263.96875 L 204.695312 263.976562 " fill-opacity="1" fill-rule="nonzero"/><path fill="#00ff66" d="M 204.546875 263.53125 L 204.519531 263.453125 L 204.546875 263.53125 " fill-opacity="1" fill-rule="nonzero"/></g></g></g><g clip-path="url(#e2179b38c4)"><g clip-path="url(#0efc294556)"><g clip-path="url(#f0fe9bf104)"><path fill="#00ff66" d="M 205.246094 263.300781 C 204.832031 262.042969 205.515625 260.683594 206.773438 260.269531 C 208.03125 259.855469 209.390625 260.539062 209.804688 261.796875 C 210.214844 263.054688 209.53125 264.414062 208.273438 264.828125 C 207.015625 265.242188 205.660156 264.558594 205.246094 263.300781 Z M 207.269531 259.425781 L 197.644531 230.171875 L 152.398438 207.363281 L 139.972656 169.613281 L 105.578125 152.269531 L 99.964844 135.214844 L 69.007812 119.609375 C 69.246094 118.417969 68.679688 117.167969 67.542969 116.59375 C 66.179688 115.90625 64.515625 116.457031 63.828125 117.820312 C 63.136719 119.1875 63.6875 120.851562 65.050781 121.539062 C 66.1875 122.113281 67.527344 121.824219 68.34375 120.925781 L 98.757812 136.257812 L 104.371094 153.3125 L 138.765625 170.652344 L 151.191406 208.402344 L 196.4375 231.214844 L 205.875 259.886719 C 204.671875 260.632812 204.085938 262.128906 204.546875 263.53125 C 205.085938 265.171875 206.863281 266.070312 208.503906 265.527344 C 210.144531 264.984375 211.042969 263.207031 210.5 261.566406 C 210.039062 260.164062 208.679688 259.308594 207.269531 259.425781 " fill-opacity="1" fill-rule="nonzero"/></g></g></g><g clip-path="url(#b7d8f90825)"><g clip-path="url(#f1390ef88e)"><g clip-path="url(#9167e8fb45)"><path fill="#00ff66" d="M 204.519531 263.453125 C 204.5 263.386719 204.480469 263.328125 204.464844 263.277344 C 204.480469 263.332031 204.5 263.390625 204.519531 263.453125 " fill-opacity="1" fill-rule="nonzero"/><path fill="#00ff66" d="M 204.691406 263.96875 C 204.671875 263.910156 204.625 263.773438 204.546875 263.53125 C 204.605469 263.710938 204.664062 263.890625 204.691406 263.96875 " fill-opacity="1" fill-rule="nonzero"/></g></g></g><g clip-path="url(#63547a342d)"><g clip-path="url(#9f30a898f5)"><g clip-path="url(#b1079471f5)"><path fill="#00ff66" d="M 204.695312 263.976562 C 204.707031 264.015625 204.703125 264.011719 204.695312 263.976562 " fill-opacity="1" fill-rule="nonzero"/></g></g></g><g clip-path="url(#05fb35433e)"><g clip-path="url(#633e0379ac)"><g clip-path="url(#0725f26b4e)"><path fill="#00ff66" d="M 204.398438 263.078125 C 204.410156 263.109375 204.433594 263.183594 204.464844 263.277344 C 204.425781 263.167969 204.40625 263.105469 204.398438 263.078125 " fill-opacity="1" fill-rule="nonzero"/></g></g></g><g clip-path="url(#ebeecd5858)"><g clip-path="url(#ec39ce5d07)"><g clip-path="url(#8f66bbf396)"><path fill="#00ff66" d="M 72.894531 134.675781 C 72.300781 135.859375 70.855469 136.335938 69.671875 135.742188 C 68.492188 135.144531 68.015625 133.699219 68.613281 132.515625 C 69.207031 131.335938 70.65625 130.859375 71.835938 131.453125 C 73.015625 132.046875 73.492188 133.492188 72.894531 134.675781 Z M 126.800781 178.457031 C 125.664062 177.886719 124.320312 178.171875 123.507812 179.074219 L 92.957031 163.671875 L 85.179688 140.046875 L 73.804688 134.308594 C 74.125 132.933594 73.484375 131.460938 72.167969 130.796875 C 70.625 130.015625 68.734375 130.640625 67.957031 132.1875 C 67.175781 133.730469 67.800781 135.621094 69.34375 136.398438 C 70.660156 137.0625 72.222656 136.703125 73.140625 135.625 L 83.972656 141.085938 L 91.75 164.710938 L 122.84375 180.386719 C 122.605469 181.578125 123.171875 182.828125 124.308594 183.402344 C 125.671875 184.089844 127.335938 183.542969 128.023438 182.175781 C 128.710938 180.808594 128.164062 179.144531 126.800781 178.457031 " fill-opacity="1" fill-rule="nonzero"/></g></g></g><g clip-path="url(#08d70ab599)"><g clip-path="url(#f79c180394)"><g clip-path="url(#79f11507af)"><path fill="#00ff66" d="M 250.851562 227.082031 C 249.667969 226.488281 249.195312 225.042969 249.789062 223.859375 C 250.386719 222.675781 251.832031 222.199219 253.011719 222.792969 C 254.191406 223.390625 254.667969 224.835938 254.074219 226.019531 C 253.476562 227.199219 252.03125 227.679688 250.851562 227.082031 Z M 254.730469 226.351562 C 255.507812 224.804688 254.886719 222.914062 253.34375 222.136719 C 252.027344 221.472656 250.460938 221.832031 249.542969 222.910156 L 225.761719 210.921875 L 217.011719 184.328125 L 162.351562 156.773438 C 162.589844 155.582031 162.023438 154.332031 160.886719 153.757812 C 159.523438 153.070312 157.859375 153.621094 157.171875 154.984375 C 156.480469 156.351562 157.03125 158.015625 158.394531 158.703125 C 159.53125 159.277344 160.871094 158.988281 161.6875 158.085938 L 215.804688 185.371094 L 224.554688 211.960938 L 248.882812 224.226562 C 248.5625 225.601562 249.203125 227.078125 250.519531 227.738281 C 252.0625 228.519531 253.953125 227.894531 254.730469 226.351562 " fill-opacity="1" fill-rule="nonzero"/></g></g></g><g clip-path="url(#acb4ef4a93)"><g clip-path="url(#d2868e9f81)"><g clip-path="url(#81064a53e7)"><path fill="#00ff66" d="M 164.855469 173.707031 C 164.261719 174.886719 162.816406 175.367188 161.636719 174.769531 C 160.453125 174.175781 159.976562 172.730469 160.574219 171.546875 C 161.171875 170.363281 162.617188 169.886719 163.796875 170.484375 C 164.976562 171.078125 165.453125 172.523438 164.855469 173.707031 Z M 203.011719 209.859375 L 196.007812 188.585938 L 165.765625 173.339844 C 166.085938 171.960938 165.445312 170.488281 164.128906 169.824219 C 162.585938 169.046875 160.695312 169.671875 159.917969 171.214844 C 159.136719 172.761719 159.761719 174.648438 161.304688 175.425781 C 162.621094 176.089844 164.1875 175.730469 165.101562 174.65625 L 194.800781 189.628906 L 200.5 206.945312 L 177.339844 195.269531 L 167.847656 198.402344 C 167.175781 197.390625 165.890625 196.910156 164.683594 197.308594 C 163.230469 197.789062 162.441406 199.355469 162.921875 200.804688 C 163.398438 202.257812 164.960938 203.046875 166.414062 202.566406 C 167.621094 202.167969 168.367188 201.015625 168.308594 199.800781 L 177.222656 196.859375 L 203.011719 209.859375 " fill-opacity="1" fill-rule="nonzero"/></g></g></g><g clip-path="url(#5f230cbf04)"><g clip-path="url(#7cd2a394cb)"><g clip-path="url(#264cf08fa8)"><path fill="#00ff66" d="M 228.949219 176.1875 C 228.355469 177.371094 226.910156 177.847656 225.726562 177.25 C 224.546875 176.65625 224.070312 175.210938 224.667969 174.027344 C 225.265625 172.847656 226.710938 172.371094 227.890625 172.964844 C 229.070312 173.558594 229.546875 175.003906 228.949219 176.1875 Z M 229.859375 175.820312 C 230.179688 174.441406 229.539062 172.972656 228.222656 172.308594 C 226.679688 171.527344 224.789062 172.152344 224.011719 173.695312 C 223.230469 175.242188 223.855469 177.132812 225.398438 177.910156 C 226.714844 178.574219 228.277344 178.214844 229.195312 177.136719 L 238.535156 181.84375 L 254.128906 176.699219 C 254.800781 177.707031 256.085938 178.191406 257.292969 177.792969 C 258.746094 177.3125 259.535156 175.746094 259.058594 174.296875 C 258.578125 172.84375 257.015625 172.054688 255.5625 172.535156 C 254.355469 172.933594 253.609375 174.085938 253.667969 175.296875 L 238.65625 180.253906 L 229.859375 175.820312 " fill-opacity="1" fill-rule="nonzero"/></g></g></g><g clip-path="url(#ad4d85cc34)"><g clip-path="url(#6e4303c6ef)"><g clip-path="url(#cc010fa01f)"><path fill="#00ff66" d="M 190.695312 214.808594 C 190.097656 215.992188 188.652344 216.46875 187.472656 215.875 C 186.289062 215.277344 185.816406 213.832031 186.410156 212.648438 C 187.007812 211.46875 188.453125 210.988281 189.632812 211.585938 C 190.816406 212.179688 191.289062 213.625 190.695312 214.808594 Z M 230.707031 243.503906 C 229.570312 242.929688 228.226562 243.21875 227.414062 244.117188 L 213.804688 237.257812 L 209.21875 223.324219 L 191.601562 214.441406 C 191.921875 213.0625 191.28125 211.589844 189.964844 210.929688 C 188.421875 210.148438 186.53125 210.773438 185.753906 212.316406 C 184.976562 213.863281 185.597656 215.753906 187.140625 216.53125 C 188.457031 217.195312 190.023438 216.835938 190.9375 215.757812 L 208.011719 224.363281 L 212.597656 238.296875 L 226.75 245.433594 C 226.511719 246.625 227.078125 247.875 228.214844 248.449219 C 229.578125 249.136719 231.242188 248.585938 231.929688 247.21875 C 232.617188 245.855469 232.070312 244.191406 230.707031 243.503906 " fill-opacity="1" fill-rule="nonzero"/></g></g></g><g clip-path="url(#8e613f182f)"><g clip-path="url(#a359c4e536)"><path fill="#212529" d="M 368.398438 228.898438 L 379.648438 228.898438 L 379.648438 244.648438 L 368.398438 244.648438 Z M 368.398438 228.898438 " fill-opacity="1" fill-rule="nonzero"/></g></g><g clip-path="url(#a56f096a82)"><g clip-path="url(#4987965956)"><path fill="#212529" d="M 360.675781 288.898438 L 375.675781 288.898438 L 375.675781 305.398438 L 360.675781 305.398438 Z M 360.675781 288.898438 " fill-opacity="1" fill-rule="nonzero"/></g></g><g clip-path="url(#f0f661c409)"><g clip-path="url(#f8d2f1d945)"><path fill="#212529" d="M 364.5 259.273438 L 378.75 259.273438 L 378.75 277.273438 L 364.5 277.273438 Z M 364.5 259.273438 " fill-opacity="1" fill-rule="nonzero"/></g></g></svg>