<svg xmlns="http://www.w3.org/2000/svg" xmlns:xlink="http://www.w3.org/1999/xlink" width="500" zoomAndPan="magnify" viewBox="0 0 375 374.999991" height="500" preserveAspectRatio="xMidYMid meet" version="1.0"><defs><clipPath id="68c7e8a515"><path d="M 0.363281 0 L 375 0 L 375 375 L 0.363281 375 Z M 0.363281 0 " clip-rule="nonzero"/></clipPath><clipPath id="f1bfb7cc8d"><path d="M 187.863281 0 C 84.308594 0 0.363281 83.945312 0.363281 187.5 C 0.363281 291.054688 84.308594 375 187.863281 375 C 291.417969 375 375.363281 291.054688 375.363281 187.5 C 375.363281 83.945312 291.417969 0 187.863281 0 " clip-rule="nonzero"/></clipPath><clipPath id="586997b97d"><path d="M 302 243 L 314 243 L 314 255 L 302 255 Z M 302 243 " clip-rule="nonzero"/></clipPath><clipPath id="aef600649f"><path d="M 84.925781 396.796875 L -9.144531 75.015625 L 327.753906 -23.472656 L 421.824219 298.308594 Z M 84.925781 396.796875 " clip-rule="nonzero"/></clipPath><clipPath id="d6cd3dfa53"><path d="M 84.925781 396.796875 L -9.144531 75.015625 L 327.753906 -23.472656 L 421.824219 298.308594 Z M 84.925781 396.796875 " clip-rule="nonzero"/></clipPath><clipPath id="bb02c1d51c"><path d="M 23 40 L 338 40 L 338 303 L 23 303 Z M 23 40 " clip-rule="nonzero"/></clipPath><clipPath id="c68953c858"><path d="M 84.925781 396.796875 L -9.144531 75.015625 L 327.753906 -23.472656 L 421.824219 298.308594 Z M 84.925781 396.796875 " clip-rule="nonzero"/></clipPath><clipPath id="c3f935cdb5"><path d="M 84.925781 396.796875 L -9.144531 75.015625 L 327.753906 -23.472656 L 421.824219 298.308594 Z M 84.925781 396.796875 " clip-rule="nonzero"/></clipPath><clipPath id="e854e0cceb"><path d="M 74.261719 360.320312 L -9.089844 75.203125 L 275.429688 -7.976562 L 358.785156 277.140625 Z M 74.261719 360.320312 " clip-rule="nonzero"/></clipPath><clipPath id="afe1394a45"><path d="M 74.261719 360.320312 L -9.082031 75.238281 L 275.441406 -7.941406 L 358.785156 277.140625 Z M 74.261719 360.320312 " clip-rule="nonzero"/></clipPath><clipPath id="fb0cfa7de8"><path d="M 339 273 L 347 273 L 347 281 L 339 281 Z M 339 273 " clip-rule="nonzero"/></clipPath><clipPath id="24ba13ff44"><path d="M 84.925781 396.796875 L -9.144531 75.015625 L 327.753906 -23.472656 L 421.824219 298.308594 Z M 84.925781 396.796875 " clip-rule="nonzero"/></clipPath><clipPath id="6fa182edd6"><path d="M 84.925781 396.796875 L -9.144531 75.015625 L 327.753906 -23.472656 L 421.824219 298.308594 Z M 84.925781 396.796875 " clip-rule="nonzero"/></clipPath><clipPath id="96035cb2fd"><path d="M 344 248 L 352 248 L 352 255 L 344 255 Z M 344 248 " clip-rule="nonzero"/></clipPath><clipPath id="62368a4095"><path d="M 84.925781 396.796875 L -9.144531 75.015625 L 327.753906 -23.472656 L 421.824219 298.308594 Z M 84.925781 396.796875 " clip-rule="nonzero"/></clipPath><clipPath id="2226820c3d"><path d="M 84.925781 396.796875 L -9.144531 75.015625 L 327.753906 -23.472656 L 421.824219 298.308594 Z M 84.925781 396.796875 " clip-rule="nonzero"/></clipPath><clipPath id="ecbfa2d0bc"><path d="M 364 262 L 371 262 L 371 269 L 364 269 Z M 364 262 " clip-rule="nonzero"/></clipPath><clipPath id="53c3c5f372"><path d="M 84.925781 396.796875 L -9.144531 75.015625 L 327.753906 -23.472656 L 421.824219 298.308594 Z M 84.925781 396.796875 " clip-rule="nonzero"/></clipPath><clipPath id="c6d6255c52"><path d="M 84.925781 396.796875 L -9.144531 75.015625 L 327.753906 -23.472656 L 421.824219 298.308594 Z M 84.925781 396.796875 " clip-rule="nonzero"/></clipPath><clipPath id="88fbcbb1e5"><path d="M 369 233 L 375 233 L 375 240 L 369 240 Z M 369 233 " clip-rule="nonzero"/></clipPath><clipPath id="8c5296462d"><path d="M 84.925781 396.796875 L -9.144531 75.015625 L 327.753906 -23.472656 L 421.824219 298.308594 Z M 84.925781 396.796875 " clip-rule="nonzero"/></clipPath><clipPath id="61906b5e69"><path d="M 84.925781 396.796875 L -9.144531 75.015625 L 327.753906 -23.472656 L 421.824219 298.308594 Z M 84.925781 396.796875 " clip-rule="nonzero"/></clipPath><clipPath id="43f7c5c7a6"><path d="M 67 95 L 236 95 L 236 161 L 67 161 Z M 67 95 " clip-rule="nonzero"/></clipPath><clipPath id="f862c0fe47"><path d="M 81.660156 69.484375 L 267.839844 163.347656 L 219.21875 259.785156 L 33.042969 165.921875 Z M 81.660156 69.484375 " clip-rule="nonzero"/></clipPath><clipPath id="0f6144231c"><path d="M 81.660156 69.484375 L 267.839844 163.347656 L 219.21875 259.785156 L 33.042969 165.921875 Z M 81.660156 69.484375 " clip-rule="nonzero"/></clipPath><clipPath id="2046ed3d91"><path d="M 197 247 L 198 247 L 198 248 L 197 248 Z M 197 247 " clip-rule="nonzero"/></clipPath><clipPath id="3fee4646ed"><path d="M 81.660156 69.484375 L 267.839844 163.347656 L 219.21875 259.785156 L 33.042969 165.921875 Z M 81.660156 69.484375 " clip-rule="nonzero"/></clipPath><clipPath id="acb64ca406"><path d="M 81.660156 69.484375 L 267.839844 163.347656 L 219.21875 259.785156 L 33.042969 165.921875 Z M 81.660156 69.484375 " clip-rule="nonzero"/></clipPath><clipPath id="0f21ff938e"><path d="M 71 116 L 203 116 L 203 250 L 71 250 Z M 71 116 " clip-rule="nonzero"/></clipPath><clipPath id="d7084e07b9"><path d="M 81.660156 69.484375 L 267.839844 163.347656 L 219.21875 259.785156 L 33.042969 165.921875 Z M 81.660156 69.484375 " clip-rule="nonzero"/></clipPath><clipPath id="8665a19fd0"><path d="M 81.660156 69.484375 L 267.839844 163.347656 L 219.21875 259.785156 L 33.042969 165.921875 Z M 81.660156 69.484375 " clip-rule="nonzero"/></clipPath><clipPath id="456a6b29ec"><path d="M 197 247 L 198 247 L 198 248 L 197 248 Z M 197 247 " clip-rule="nonzero"/></clipPath><clipPath id="0c0a97c37b"><path d="M 81.660156 69.484375 L 267.839844 163.347656 L 219.21875 259.785156 L 33.042969 165.921875 Z M 81.660156 69.484375 " clip-rule="nonzero"/></clipPath><clipPath id="829c3a4bab"><path d="M 81.660156 69.484375 L 267.839844 163.347656 L 219.21875 259.785156 L 33.042969 165.921875 Z M 81.660156 69.484375 " clip-rule="nonzero"/></clipPath><clipPath id="f87eb56f9a"><path d="M 75 129 L 130 129 L 130 177 L 75 177 Z M 75 129 " clip-rule="nonzero"/></clipPath><clipPath id="a1934fc351"><path d="M 81.660156 69.484375 L 267.839844 163.347656 L 219.21875 259.785156 L 33.042969 165.921875 Z M 81.660156 69.484375 " clip-rule="nonzero"/></clipPath><clipPath id="9dd24f1570"><path d="M 81.660156 69.484375 L 267.839844 163.347656 L 219.21875 259.785156 L 33.042969 165.921875 Z M 81.660156 69.484375 " clip-rule="nonzero"/></clipPath><clipPath id="d98de6dcd4"><path d="M 154 149 L 243 149 L 243 217 L 154 217 Z M 154 149 " clip-rule="nonzero"/></clipPath><clipPath id="aaecdb1bdf"><path d="M 81.660156 69.484375 L 267.839844 163.347656 L 219.21875 259.785156 L 33.042969 165.921875 Z M 81.660156 69.484375 " clip-rule="nonzero"/></clipPath><clipPath id="2edbe8491d"><path d="M 81.660156 69.484375 L 267.839844 163.347656 L 219.21875 259.785156 L 33.042969 165.921875 Z M 81.660156 69.484375 " clip-rule="nonzero"/></clipPath><clipPath id="9e42a5244f"><path d="M 157 163 L 197 163 L 197 200 L 157 200 Z M 157 163 " clip-rule="nonzero"/></clipPath><clipPath id="e9c5d826dc"><path d="M 81.660156 69.484375 L 267.839844 163.347656 L 219.21875 259.785156 L 33.042969 165.921875 Z M 81.660156 69.484375 " clip-rule="nonzero"/></clipPath><clipPath id="72f0681510"><path d="M 81.660156 69.484375 L 267.839844 163.347656 L 219.21875 259.785156 L 33.042969 165.921875 Z M 81.660156 69.484375 " clip-rule="nonzero"/></clipPath><clipPath id="0a216d0cd8"><path d="M 214 166 L 247 166 L 247 175 L 214 175 Z M 214 166 " clip-rule="nonzero"/></clipPath><clipPath id="60c03850dc"><path d="M 81.660156 69.484375 L 267.839844 163.347656 L 219.21875 259.785156 L 33.042969 165.921875 Z M 81.660156 69.484375 " clip-rule="nonzero"/></clipPath><clipPath id="7a9b39c363"><path d="M 81.660156 69.484375 L 267.839844 163.347656 L 219.21875 259.785156 L 33.042969 165.921875 Z M 81.660156 69.484375 " clip-rule="nonzero"/></clipPath><clipPath id="0d8d43b262"><path d="M 180 200 L 223 200 L 223 235 L 180 235 Z M 180 200 " clip-rule="nonzero"/></clipPath><clipPath id="e0be6b9481"><path d="M 81.660156 69.484375 L 267.839844 163.347656 L 219.21875 259.785156 L 33.042969 165.921875 Z M 81.660156 69.484375 " clip-rule="nonzero"/></clipPath><clipPath id="71772b0833"><path d="M 81.660156 69.484375 L 267.839844 163.347656 L 219.21875 259.785156 L 33.042969 165.921875 Z M 81.660156 69.484375 " clip-rule="nonzero"/></clipPath><clipPath id="bef123dc70"><path d="M 342 246 L 353 246 L 353 255 L 342 255 Z M 342 246 " clip-rule="nonzero"/></clipPath><clipPath id="81653a79cd"><path d="M 348.167969 252.132812 C 345.917969 254.757812 345.019531 255.058594 344.34375 254.910156 C 343.667969 254.757812 342.84375 254.085938 342.617188 253.484375 C 342.394531 252.882812 342.46875 251.984375 342.84375 251.234375 C 343.367188 250.109375 345.09375 248.234375 346.144531 247.558594 C 346.742188 247.183594 347.34375 246.882812 347.941406 247.035156 C 348.691406 247.183594 349.96875 248.160156 350.191406 248.910156 C 350.417969 249.660156 349.816406 251.535156 349.292969 251.683594 C 348.691406 251.835938 346.742188 249.808594 346.667969 248.910156 C 346.59375 248.160156 347.492188 247.109375 348.167969 246.734375 C 348.84375 246.359375 350.042969 246.359375 350.71875 246.734375 C 351.394531 247.109375 352.144531 248.160156 352.144531 248.910156 C 352.144531 249.808594 351.167969 251.382812 350.417969 251.757812 C 349.742188 252.058594 348.46875 251.910156 347.867188 251.460938 C 347.191406 250.933594 346.667969 249.132812 346.816406 248.308594 C 346.894531 247.710938 347.417969 247.183594 347.867188 246.882812 C 348.316406 246.585938 348.992188 246.285156 349.59375 246.433594 C 350.417969 246.660156 351.769531 247.632812 352.066406 248.609375 C 352.441406 249.808594 351.769531 252.285156 351.09375 253.335938 C 350.566406 254.085938 349.742188 254.683594 348.917969 254.835938 C 348.019531 255.058594 346.441406 254.910156 345.769531 254.234375 C 344.941406 253.410156 344.566406 250.933594 344.867188 249.734375 C 345.09375 248.757812 345.917969 247.632812 346.667969 247.257812 C 347.34375 246.960938 348.46875 247.109375 349.066406 247.410156 C 349.59375 247.710938 350.042969 248.382812 350.191406 248.910156 C 350.34375 249.433594 350.34375 250.035156 350.042969 250.710938 C 349.519531 251.835938 347.191406 254.007812 346.066406 254.609375 C 345.46875 254.910156 344.867188 254.984375 344.34375 254.910156 C 343.816406 254.835938 343.21875 254.460938 342.917969 254.007812 C 342.542969 253.410156 342.542969 252.058594 342.84375 251.234375 C 343.144531 250.335938 344.117188 249.359375 344.867188 248.910156 C 345.542969 248.535156 346.367188 248.308594 346.96875 248.460938 C 347.566406 248.609375 348.316406 249.433594 348.542969 250.035156 C 348.769531 250.632812 348.167969 252.132812 348.167969 252.132812 " clip-rule="nonzero"/></clipPath><clipPath id="a3db084e77"><path d="M 363 260.757812 L 372.917969 260.757812 L 372.917969 270.507812 L 363 270.507812 Z M 363 260.757812 " clip-rule="nonzero"/></clipPath><clipPath id="13a88378db"><path d="M 369.316406 264.359375 C 365.191406 267.882812 364.59375 267.585938 364.144531 267.285156 C 363.691406 266.984375 363.242188 266.382812 363.167969 265.785156 C 363.09375 265.035156 363.691406 263.308594 364.21875 263.234375 C 364.894531 263.160156 367.292969 266.609375 366.992188 267.132812 C 366.769531 267.585938 364.816406 267.585938 364.21875 267.132812 C 363.617188 266.683594 363.167969 265.257812 363.242188 264.507812 C 363.316406 263.910156 363.769531 263.234375 364.292969 263.085938 C 365.117188 262.859375 367.667969 265.335938 368.042969 265.035156 C 368.269531 264.808594 367.066406 263.382812 367.292969 262.785156 C 367.59375 262.035156 369.242188 260.984375 370.066406 261.058594 C 370.894531 261.132812 372.09375 262.484375 372.394531 263.234375 C 372.617188 263.757812 372.46875 264.507812 372.167969 264.960938 C 371.792969 265.558594 370.816406 266.234375 370.066406 266.308594 C 369.316406 266.382812 368.191406 265.933594 367.742188 265.410156 C 367.292969 264.882812 366.992188 263.683594 367.21875 263.007812 C 367.519531 262.183594 368.941406 261.132812 369.769531 261.058594 C 370.519531 260.984375 371.492188 261.660156 371.941406 262.183594 C 372.316406 262.632812 372.394531 263.160156 372.46875 263.835938 C 372.542969 264.808594 372.242188 266.535156 371.792969 267.585938 C 371.417969 268.484375 370.816406 269.308594 370.066406 269.757812 C 369.242188 270.210938 367.96875 270.507812 367.066406 270.285156 C 366.09375 270.058594 365.117188 269.085938 364.441406 268.257812 C 363.84375 267.507812 362.941406 265.933594 363.242188 265.632812 C 363.542969 265.335938 367.066406 266.910156 366.992188 267.132812 C 366.992188 267.359375 364.816406 267.585938 364.21875 267.132812 C 363.617188 266.683594 363.167969 265.257812 363.242188 264.507812 C 363.316406 263.910156 363.84375 263.085938 364.292969 263.085938 C 364.96875 263.085938 367.21875 266.683594 366.917969 267.285156 C 366.691406 267.734375 364.742188 267.660156 364.144531 267.285156 C 363.542969 266.910156 363.09375 266.007812 363.167969 265.257812 C 363.242188 264.132812 364.894531 262.035156 365.792969 261.359375 C 366.316406 260.910156 366.84375 260.757812 367.367188 260.757812 C 367.96875 260.757812 368.941406 261.210938 369.316406 261.734375 C 369.691406 262.335938 369.316406 264.359375 369.316406 264.359375 " clip-rule="nonzero"/></clipPath><clipPath id="0eb64a93fc"><path d="M 369.242188 233 L 374.492188 233 L 374.492188 241.859375 L 369.242188 241.859375 Z M 369.242188 233 " clip-rule="nonzero"/></clipPath><clipPath id="d2fd7a5512"><path d="M 369.242188 238.785156 C 370.21875 233.984375 370.667969 233.683594 371.117188 233.609375 C 371.71875 233.460938 372.769531 233.609375 373.292969 234.058594 C 373.742188 234.507812 374.117188 235.484375 374.042969 236.085938 C 373.96875 236.757812 373.367188 237.585938 372.769531 237.882812 C 372.167969 238.183594 371.191406 238.183594 370.59375 237.882812 C 370.066406 237.585938 369.394531 236.757812 369.394531 236.085938 C 369.394531 235.335938 370.21875 233.984375 370.894531 233.683594 C 371.566406 233.382812 373.066406 233.757812 373.59375 234.433594 C 374.269531 235.335938 374.117188 238.035156 373.894531 239.160156 C 373.742188 239.835938 373.59375 240.359375 373.144531 240.660156 C 372.617188 241.035156 371.269531 241.335938 370.59375 241.035156 C 369.917969 240.734375 369.242188 238.785156 369.242188 238.785156 " clip-rule="nonzero"/></clipPath><clipPath id="e4c9cecf29"><path d="M 371 231.148438 L 375 231.148438 L 375 242 L 371 242 Z M 371 231.148438 " clip-rule="nonzero"/></clipPath><clipPath id="aa8f2b057f"><path d="M 376.273438 235.726562 C 375.824219 241.050781 375.300781 241.5 374.773438 241.648438 C 374.175781 241.875 373.050781 241.726562 372.523438 241.351562 C 371.925781 240.976562 371.625 240.226562 371.398438 239.324219 C 371.023438 237.824219 370.949219 233.925781 371.851562 232.800781 C 372.449219 232.050781 374.101562 231.75 374.851562 231.976562 C 375.523438 232.199219 376.273438 233.175781 376.425781 233.851562 C 376.574219 234.523438 376.273438 235.648438 375.824219 236.175781 C 375.375 236.699219 374.25 237.148438 373.5 237 C 372.824219 236.851562 371.773438 236.175781 371.550781 235.5 C 371.25 234.75 371.625 233.023438 372.226562 232.425781 C 372.75 231.898438 373.949219 231.675781 374.625 231.898438 C 375.375 232.199219 376.199219 233.324219 376.5 234.375 C 376.949219 235.875 376.726562 239.25 376.125 240.449219 C 375.824219 241.125 375.300781 241.5 374.773438 241.648438 C 374.175781 241.875 373.050781 241.726562 372.523438 241.351562 C 371.925781 240.976562 371.550781 240.226562 371.398438 239.324219 C 371.175781 238.050781 371.324219 235.050781 372.148438 234.148438 C 372.75 233.476562 374.101562 233.175781 374.773438 233.476562 C 375.449219 233.773438 376.273438 235.726562 376.273438 235.726562 " clip-rule="nonzero"/></clipPath></defs><g clip-path="url(#68c7e8a515)"><g clip-path="url(#f1bfb7cc8d)"><path stroke-linecap="butt" transform="matrix(0.75, 0, 0, 0.75, 0.363377, 0)" fill="none" stroke-linejoin="miter" d="M 249.999873 0 C 111.926956 0 -0.000127083 111.927084 -0.000127083 250 C -0.000127083 388.072917 111.926956 500.000001 249.999873 500.000001 C 388.07279 500.000001 499.999874 388.072917 499.999874 250 C 499.999874 111.927084 388.07279 0 249.999873 0 " stroke="#00ff66" stroke-width="30" stroke-opacity="1" stroke-miterlimit="4"/></g></g><g clip-path="url(#586997b97d)"><g clip-path="url(#aef600649f)"><g clip-path="url(#d6cd3dfa53)"><path fill="#00ff66" d="M 305.472656 254.257812 C 308.222656 255.765625 311.667969 254.757812 313.171875 252.003906 C 314.675781 249.253906 313.667969 245.800781 310.917969 244.292969 C 308.167969 242.785156 304.722656 243.792969 303.21875 246.546875 C 301.714844 249.296875 302.722656 252.75 305.472656 254.257812 " fill-opacity="1" fill-rule="nonzero"/></g></g></g><g clip-path="url(#bb02c1d51c)"><g clip-path="url(#c68953c858)"><g clip-path="url(#c3f935cdb5)"><g clip-path="url(#e854e0cceb)"><g clip-path="url(#afe1394a45)"><path fill="#00ff66" d="M 123.0625 49.164062 C 126.148438 50.550781 129.1875 52.453125 132.351562 54.984375 L 263.132812 166.246094 L 214.085938 255.964844 L 50.105469 205.535156 C 46.261719 204.222656 43.007812 202.679688 40.164062 200.816406 C 32.6875 195.914062 15.191406 184.425781 55.503906 110.667969 C 95.824219 36.910156 114.910156 45.496094 123.0625 49.164062 Z M 277.460938 163.085938 L 285.796875 167.65625 C 287.679688 168.691406 288.425781 171.238281 287.394531 173.125 L 232.945312 272.738281 C 232.429688 273.679688 231.578125 274.367188 230.542969 274.667969 C 229.511719 274.96875 228.425781 274.851562 227.484375 274.335938 L 219.144531 269.761719 C 218.203125 269.242188 217.519531 268.390625 217.21875 267.359375 C 216.914062 266.324219 217.03125 265.238281 217.546875 264.292969 L 272 164.679688 C 272.515625 163.738281 273.367188 163.050781 274.398438 162.75 C 275.429688 162.449219 276.515625 162.566406 277.460938 163.085938 Z M 311.183594 178.644531 L 309.417969 181.871094 L 250.398438 289.839844 L 237.535156 277.816406 L 294.136719 174.265625 Z M 328.726562 234.960938 C 326.007812 233.585938 322.671875 234.59375 321.199219 237.289062 C 319.695312 240.039062 320.707031 243.492188 323.453125 245 C 324.003906 245.300781 324.578125 245.472656 325.164062 245.582031 C 323.765625 249.035156 322.148438 252.488281 320.28125 255.90625 C 318.667969 258.859375 316.921875 261.691406 315.066406 264.394531 C 314.640625 263.90625 314.140625 263.46875 313.539062 263.140625 C 310.789062 261.632812 307.34375 262.640625 305.839844 265.390625 C 304.335938 268.140625 305.34375 271.59375 308.09375 273.101562 C 308.140625 273.128906 308.195312 273.140625 308.246094 273.167969 C 301.925781 280.351562 294.753906 286.164062 287.148438 290.140625 C 275.8125 296.070312 264.785156 297.257812 255.710938 293.597656 L 317.203125 181.105469 C 330.75 190.765625 334.839844 212.152344 328.726562 234.960938 Z M 36.628906 206.222656 C 39.933594 208.394531 43.664062 210.167969 48.125 211.6875 L 211.554688 261.949219 C 210.535156 264.226562 210.3125 266.75 211.019531 269.171875 C 211.804688 271.859375 213.589844 274.085938 216.046875 275.433594 L 224.382812 280.003906 C 226.585938 281.214844 229.085938 281.539062 231.519531 281.035156 L 249.035156 297.40625 C 249.230469 297.589844 249.445312 297.738281 249.667969 297.863281 C 249.675781 297.867188 249.679688 297.875 249.6875 297.878906 C 261.214844 304.203125 275.578125 303.492188 290.144531 295.875 C 304.277344 288.484375 316.996094 275.394531 325.949219 259.011719 C 337.59375 237.710938 340.535156 214.847656 335.46875 197.527344 C 332.398438 187.019531 326.375 178.546875 317.5625 173.714844 C 317.550781 173.707031 317.539062 173.707031 317.53125 173.703125 C 317.46875 173.667969 317.398438 173.648438 317.335938 173.617188 C 317.1875 173.550781 317.039062 173.488281 316.886719 173.445312 C 316.859375 173.4375 316.839844 173.425781 316.8125 173.417969 L 293.605469 167.449219 C 292.71875 165.128906 291.097656 163.195312 288.894531 161.988281 L 280.558594 157.414062 C 278.105469 156.066406 275.269531 155.757812 272.582031 156.542969 C 270.164062 157.25 268.164062 158.796875 266.800781 160.886719 L 136.492188 50.023438 C 136.46875 50 136.441406 49.980469 136.417969 49.964844 C 132.8125 47.074219 129.304688 44.882812 125.703125 43.261719 C 109.542969 35.992188 87.894531 37.945312 49.839844 107.558594 C 11.785156 177.175781 21.8125 196.5 36.628906 206.222656 " fill-opacity="1" fill-rule="nonzero"/></g></g></g></g></g><g clip-path="url(#fb0cfa7de8)"><g clip-path="url(#24ba13ff44)"><g clip-path="url(#6fa182edd6)"><path fill="#00ff66" d="M 345.9375 275.871094 C 345.703125 275.0625 345.140625 274.371094 344.386719 273.941406 C 344.015625 273.734375 343.597656 273.613281 343.179688 273.574219 C 342.761719 273.519531 342.34375 273.550781 341.929688 273.671875 C 341.722656 273.730469 341.523438 273.8125 341.328125 273.914062 C 341.15625 274.011719 340.988281 274.128906 340.804688 274.269531 C 340.644531 274.40625 340.503906 274.539062 340.375 274.710938 C 340.21875 274.867188 340.117188 275.054688 340.007812 275.222656 C 339.1875 276.71875 339.800781 278.808594 341.289062 279.609375 C 341.476562 279.710938 341.664062 279.816406 341.878906 279.863281 C 342.082031 279.941406 342.269531 279.972656 342.480469 280.003906 C 342.710938 280.027344 342.914062 280.03125 343.113281 280.019531 C 343.328125 279.980469 343.539062 279.941406 343.746094 279.878906 C 344.15625 279.757812 344.53125 279.582031 344.855469 279.308594 C 345.1875 279.054688 345.472656 278.722656 345.667969 278.328125 C 346.078125 277.578125 346.179688 276.695312 345.9375 275.871094 " fill-opacity="1" fill-rule="nonzero"/></g></g></g><g clip-path="url(#96035cb2fd)"><g clip-path="url(#62368a4095)"><g clip-path="url(#2226820c3d)"><path fill="#00ff66" d="M 345.90625 248.835938 C 345.746094 248.972656 345.582031 249.109375 345.453125 249.28125 C 345.320312 249.433594 345.191406 249.605469 345.085938 249.792969 C 344.984375 249.980469 344.910156 250.183594 344.855469 250.378906 C 344.777344 250.578125 344.75 250.789062 344.722656 251 C 344.695312 251.210938 344.695312 251.433594 344.707031 251.632812 C 344.738281 252.050781 344.859375 252.464844 345.0625 252.855469 C 345.160156 253.027344 345.28125 253.21875 345.417969 253.378906 C 345.554688 253.542969 345.691406 253.703125 345.867188 253.832031 C 346.015625 253.96875 346.1875 254.097656 346.371094 254.179688 C 346.558594 254.28125 346.765625 254.378906 346.960938 254.433594 C 347.164062 254.507812 347.371094 254.539062 347.582031 254.566406 C 347.792969 254.59375 347.996094 254.601562 348.214844 254.582031 C 348.429688 254.542969 348.621094 254.511719 348.828125 254.449219 C 349.652344 254.207031 350.347656 253.667969 350.75 252.898438 C 350.953125 252.523438 351.085938 252.128906 351.140625 251.707031 C 351.179688 251.289062 351.140625 250.855469 351.019531 250.4375 C 350.898438 250.027344 350.703125 249.65625 350.445312 249.328125 C 350.171875 249.003906 349.839844 248.71875 349.46875 248.511719 C 349.09375 248.308594 348.699219 248.175781 348.28125 248.140625 C 347.863281 248.082031 347.425781 248.121094 347.011719 248.242188 C 346.804688 248.300781 346.625 248.378906 346.433594 248.480469 C 346.234375 248.582031 346.066406 248.699219 345.90625 248.835938 " fill-opacity="1" fill-rule="nonzero"/></g></g></g><g clip-path="url(#ecbfa2d0bc)"><g clip-path="url(#53c3c5f372)"><g clip-path="url(#c6d6255c52)"><path fill="#00ff66" d="M 365.214844 262.867188 C 365.054688 263.003906 364.898438 263.160156 364.761719 263.3125 C 364.632812 263.484375 364.507812 263.65625 364.402344 263.84375 C 363.890625 264.78125 363.875 265.953125 364.371094 266.886719 C 364.472656 267.082031 364.589844 267.25 364.726562 267.414062 C 364.84375 267.578125 365 267.734375 365.152344 267.871094 C 365.328125 268 365.5 268.128906 365.6875 268.230469 C 365.871094 268.332031 366.074219 268.410156 366.273438 268.488281 C 366.472656 268.542969 366.6875 268.589844 366.890625 268.597656 C 367.101562 268.625 367.304688 268.632812 367.523438 268.617188 C 367.722656 268.601562 367.933594 268.5625 368.140625 268.503906 C 368.96875 268.261719 369.65625 267.699219 370.066406 266.949219 C 370.269531 266.578125 370.394531 266.160156 370.453125 265.738281 C 370.484375 265.324219 370.453125 264.90625 370.332031 264.492188 C 370.089844 263.664062 369.53125 262.976562 368.785156 262.5625 C 368.035156 262.15625 367.152344 262.054688 366.328125 262.292969 C 366.121094 262.355469 365.917969 262.4375 365.746094 262.53125 C 365.550781 262.632812 365.382812 262.75 365.214844 262.867188 " fill-opacity="1" fill-rule="nonzero"/></g></g></g><g clip-path="url(#88fbcbb1e5)"><g clip-path="url(#8c5296462d)"><g clip-path="url(#61906b5e69)"><path fill="#00ff66" d="M 369.992188 235.390625 C 369.921875 235.617188 369.886719 235.804688 369.859375 236.015625 C 369.828125 236.226562 369.828125 236.449219 369.84375 236.648438 C 369.898438 237.082031 370.019531 237.496094 370.199219 237.871094 C 370.300781 238.0625 370.417969 238.234375 370.554688 238.394531 C 370.691406 238.554688 370.828125 238.71875 371 238.847656 C 371.152344 238.984375 371.324219 239.113281 371.511719 239.214844 C 372.261719 239.625 373.164062 239.722656 373.988281 239.480469 C 374.382812 239.363281 374.769531 239.160156 375.09375 238.886719 C 375.425781 238.632812 375.6875 238.308594 375.894531 237.933594 C 376.324219 237.179688 376.402344 236.304688 376.160156 235.476562 C 375.917969 234.648438 375.378906 233.953125 374.609375 233.546875 C 374.234375 233.34375 373.839844 233.210938 373.417969 233.15625 C 373 233.097656 372.566406 233.15625 372.175781 233.273438 C 371.347656 233.511719 370.640625 234.078125 370.230469 234.828125 C 370.128906 235.015625 370.046875 235.195312 369.992188 235.390625 " fill-opacity="1" fill-rule="nonzero"/></g></g></g><g clip-path="url(#43f7c5c7a6)"><g clip-path="url(#f862c0fe47)"><g clip-path="url(#0f6144231c)"><path fill="#00ff66" d="M 69.121094 100.550781 C 68.070312 100.019531 67.644531 98.734375 68.175781 97.683594 C 68.707031 96.632812 69.992188 96.207031 71.042969 96.734375 C 72.09375 97.265625 72.515625 98.550781 71.988281 99.605469 C 71.457031 100.65625 70.171875 101.082031 69.121094 100.550781 Z M 72.207031 100.449219 L 118.078125 123.574219 L 123.40625 139.765625 L 136.988281 146.609375 L 158.097656 139.640625 L 199.960938 160.746094 L 231.300781 150.398438 C 231.898438 151.300781 233.042969 151.730469 234.117188 151.375 C 235.410156 150.949219 236.113281 149.554688 235.6875 148.261719 C 235.261719 146.972656 233.871094 146.269531 232.578125 146.695312 C 231.503906 147.050781 230.839844 148.078125 230.890625 149.15625 L 200.066406 159.332031 L 158.203125 138.226562 L 137.09375 145.195312 L 124.480469 138.839844 L 119.152344 122.648438 L 72.796875 99.277344 C 73.082031 98.050781 72.511719 96.742188 71.339844 96.152344 C 69.964844 95.457031 68.285156 96.015625 67.589844 97.386719 C 66.898438 98.761719 67.453125 100.445312 68.824219 101.136719 C 69.996094 101.726562 71.390625 101.40625 72.207031 100.449219 " fill-opacity="1" fill-rule="nonzero"/></g></g></g><g clip-path="url(#2046ed3d91)"><g clip-path="url(#3fee4646ed)"><g clip-path="url(#acb64ca406)"><path fill="#00ff66" d="M 197.542969 247.957031 L 197.539062 247.949219 L 197.542969 247.957031 " fill-opacity="1" fill-rule="nonzero"/><path fill="#00ff66" d="M 197.410156 247.558594 L 197.386719 247.492188 L 197.410156 247.558594 " fill-opacity="1" fill-rule="nonzero"/></g></g></g><g clip-path="url(#0f21ff938e)"><g clip-path="url(#d7084e07b9)"><g clip-path="url(#8665a19fd0)"><path fill="#00ff66" d="M 198.03125 247.355469 C 197.664062 246.238281 198.273438 245.027344 199.390625 244.65625 C 200.511719 244.289062 201.71875 244.898438 202.085938 246.015625 C 202.453125 247.136719 201.84375 248.34375 200.726562 248.714844 C 199.609375 249.082031 198.402344 248.472656 198.03125 247.355469 Z M 199.835938 243.90625 L 191.269531 217.878906 L 151.007812 197.582031 L 139.953125 163.992188 L 109.347656 148.5625 L 104.355469 133.386719 L 76.808594 119.5 C 77.023438 118.441406 76.519531 117.328125 75.507812 116.820312 C 74.292969 116.207031 72.8125 116.695312 72.199219 117.910156 C 71.585938 119.125 72.074219 120.605469 73.289062 121.21875 C 74.300781 121.726562 75.496094 121.472656 76.21875 120.671875 L 103.28125 134.3125 L 108.273438 149.488281 L 138.878906 164.917969 L 149.933594 198.507812 L 190.195312 218.804688 L 198.589844 244.316406 C 197.523438 244.980469 197 246.3125 197.410156 247.558594 C 197.890625 249.019531 199.472656 249.816406 200.933594 249.335938 C 202.394531 248.851562 203.191406 247.273438 202.707031 245.8125 C 202.296875 244.5625 201.089844 243.804688 199.835938 243.90625 " fill-opacity="1" fill-rule="nonzero"/></g></g></g><g clip-path="url(#456a6b29ec)"><g clip-path="url(#0c0a97c37b)"><g clip-path="url(#829c3a4bab)"><path fill="#00ff66" d="M 197.386719 247.492188 C 197.367188 247.433594 197.351562 247.378906 197.335938 247.335938 C 197.351562 247.382812 197.371094 247.4375 197.386719 247.492188 " fill-opacity="1" fill-rule="nonzero"/><path fill="#00ff66" d="M 197.539062 247.949219 C 197.519531 247.894531 197.480469 247.777344 197.410156 247.558594 C 197.464844 247.71875 197.515625 247.878906 197.539062 247.949219 " fill-opacity="1" fill-rule="nonzero"/><path fill="#00ff66" d="M 197.542969 247.957031 C 197.550781 247.992188 197.550781 247.988281 197.542969 247.957031 " fill-opacity="1" fill-rule="nonzero"/><path fill="#00ff66" d="M 197.277344 247.15625 C 197.289062 247.1875 197.308594 247.253906 197.335938 247.335938 C 197.304688 247.238281 197.285156 247.183594 197.277344 247.15625 " fill-opacity="1" fill-rule="nonzero"/></g></g></g><g clip-path="url(#f87eb56f9a)"><g clip-path="url(#a1934fc351)"><g clip-path="url(#9dd24f1570)"><path fill="#00ff66" d="M 80.269531 132.90625 C 79.738281 133.960938 78.453125 134.382812 77.402344 133.855469 C 76.351562 133.324219 75.929688 132.039062 76.457031 130.988281 C 76.988281 129.933594 78.277344 129.507812 79.328125 130.039062 C 80.378906 130.570312 80.800781 131.855469 80.269531 132.90625 Z M 128.234375 171.863281 C 127.222656 171.355469 126.027344 171.609375 125.300781 172.410156 L 98.121094 158.707031 L 91.203125 137.683594 L 81.078125 132.582031 C 81.363281 131.355469 80.792969 130.042969 79.621094 129.453125 C 78.25 128.761719 76.566406 129.316406 75.875 130.691406 C 75.179688 132.066406 75.734375 133.746094 77.109375 134.441406 C 78.28125 135.03125 79.671875 134.710938 80.488281 133.75 L 90.128906 138.613281 L 97.046875 159.632812 L 124.710938 173.582031 C 124.5 174.640625 125.003906 175.753906 126.015625 176.261719 C 127.226562 176.875 128.710938 176.386719 129.320312 175.171875 C 129.933594 173.957031 129.445312 172.476562 128.234375 171.863281 " fill-opacity="1" fill-rule="nonzero"/></g></g></g><g clip-path="url(#d98de6dcd4)"><g clip-path="url(#aaecdb1bdf)"><g clip-path="url(#2edbe8491d)"><path fill="#00ff66" d="M 238.609375 215.128906 C 237.558594 214.597656 237.136719 213.3125 237.667969 212.261719 C 238.199219 211.207031 239.484375 210.785156 240.535156 211.3125 C 241.585938 211.84375 242.007812 213.128906 241.476562 214.183594 C 240.949219 215.234375 239.660156 215.660156 238.609375 215.128906 Z M 242.0625 214.476562 C 242.753906 213.101562 242.203125 211.421875 240.828125 210.730469 C 239.65625 210.136719 238.265625 210.457031 237.449219 211.417969 L 216.289062 200.75 L 208.5 177.089844 L 159.863281 152.566406 C 160.078125 151.507812 159.574219 150.394531 158.5625 149.886719 C 157.347656 149.273438 155.867188 149.761719 155.257812 150.976562 C 154.644531 152.191406 155.128906 153.671875 156.34375 154.285156 C 157.355469 154.796875 158.550781 154.539062 159.273438 153.738281 L 207.425781 178.015625 L 215.214844 201.675781 L 236.859375 212.585938 C 236.574219 213.8125 237.144531 215.125 238.316406 215.714844 C 239.6875 216.40625 241.371094 215.851562 242.0625 214.476562 " fill-opacity="1" fill-rule="nonzero"/></g></g></g><g clip-path="url(#9e42a5244f)"><g clip-path="url(#e9c5d826dc)"><g clip-path="url(#72f0681510)"><path fill="#00ff66" d="M 162.09375 167.636719 C 161.566406 168.6875 160.28125 169.113281 159.226562 168.582031 C 158.179688 168.050781 157.753906 166.765625 158.285156 165.714844 C 158.816406 164.664062 160.101562 164.238281 161.152344 164.769531 C 162.203125 165.296875 162.625 166.585938 162.09375 167.636719 Z M 196.042969 199.804688 L 189.8125 180.875 L 162.902344 167.308594 C 163.191406 166.082031 162.617188 164.773438 161.445312 164.183594 C 160.074219 163.492188 158.394531 164.046875 157.699219 165.417969 C 157.007812 166.792969 157.5625 168.476562 158.933594 169.167969 C 160.105469 169.757812 161.496094 169.4375 162.3125 168.480469 L 188.738281 181.800781 L 193.8125 197.210938 L 173.203125 186.824219 L 164.757812 189.609375 C 164.160156 188.710938 163.015625 188.28125 161.941406 188.636719 C 160.648438 189.0625 159.945312 190.457031 160.371094 191.75 C 160.796875 193.039062 162.1875 193.742188 163.480469 193.316406 C 164.554688 192.960938 165.21875 191.933594 165.167969 190.855469 L 173.097656 188.238281 L 196.042969 199.804688 " fill-opacity="1" fill-rule="nonzero"/></g></g></g><g clip-path="url(#0a216d0cd8)"><g clip-path="url(#60c03850dc)"><g clip-path="url(#7a9b39c363)"><path fill="#00ff66" d="M 219.125 169.84375 C 218.59375 170.894531 217.308594 171.320312 216.257812 170.789062 C 215.207031 170.261719 214.78125 168.976562 215.3125 167.921875 C 215.84375 166.871094 217.128906 166.445312 218.179688 166.976562 C 219.230469 167.503906 219.65625 168.792969 219.125 169.84375 Z M 219.933594 169.515625 C 220.21875 168.292969 219.648438 166.980469 218.476562 166.390625 C 217.101562 165.699219 215.421875 166.253906 214.730469 167.628906 C 214.035156 169 214.589844 170.683594 215.960938 171.375 C 217.132812 171.964844 218.527344 171.648438 219.34375 170.6875 L 227.652344 174.878906 L 241.527344 170.296875 C 242.125 171.195312 243.269531 171.625 244.34375 171.269531 C 245.636719 170.84375 246.335938 169.449219 245.914062 168.160156 C 245.488281 166.867188 244.09375 166.164062 242.804688 166.59375 C 241.726562 166.949219 241.066406 167.972656 241.117188 169.050781 L 227.757812 173.460938 L 219.933594 169.515625 " fill-opacity="1" fill-rule="nonzero"/></g></g></g><g clip-path="url(#0d8d43b262)"><g clip-path="url(#e0be6b9481)"><g clip-path="url(#71772b0833)"><path fill="#00ff66" d="M 185.085938 204.207031 C 184.554688 205.261719 183.269531 205.683594 182.21875 205.15625 C 181.164062 204.625 180.742188 203.339844 181.273438 202.285156 C 181.804688 201.234375 183.089844 200.808594 184.140625 201.339844 C 185.191406 201.871094 185.613281 203.15625 185.085938 204.207031 Z M 220.6875 229.738281 C 219.675781 229.230469 218.480469 229.484375 217.757812 230.285156 L 205.648438 224.183594 L 201.570312 211.785156 L 185.890625 203.878906 C 186.179688 202.65625 185.605469 201.34375 184.4375 200.753906 C 183.0625 200.0625 181.382812 200.617188 180.6875 201.992188 C 179.996094 203.367188 180.550781 205.046875 181.921875 205.738281 C 183.09375 206.332031 184.488281 206.011719 185.300781 205.050781 L 200.492188 212.710938 L 204.574219 225.109375 L 217.167969 231.457031 C 216.953125 232.515625 217.457031 233.628906 218.46875 234.140625 C 219.683594 234.75 221.164062 234.261719 221.777344 233.046875 C 222.386719 231.832031 221.902344 230.351562 220.6875 229.738281 " fill-opacity="1" fill-rule="nonzero"/></g></g></g><g clip-path="url(#bef123dc70)"><g clip-path="url(#81653a79cd)"><path fill="#212529" d="M 339.617188 243.433594 L 355.367188 243.433594 L 355.367188 257.683594 L 339.617188 257.683594 Z M 339.617188 243.433594 " fill-opacity="1" fill-rule="nonzero"/></g></g><g clip-path="url(#a3db084e77)"><g clip-path="url(#13a88378db)"><path fill="#212529" d="M 360.167969 257.757812 L 375.167969 257.757812 L 375.167969 273.507812 L 360.167969 273.507812 Z M 360.167969 257.757812 " fill-opacity="1" fill-rule="nonzero"/></g></g><g clip-path="url(#0eb64a93fc)"><g clip-path="url(#d2fd7a5512)"><path fill="#212529" d="M 366.242188 230.609375 L 376.742188 230.609375 L 376.742188 244.109375 L 366.242188 244.109375 Z M 366.242188 230.609375 " fill-opacity="1" fill-rule="nonzero"/></g></g><g clip-path="url(#e4c9cecf29)"><g clip-path="url(#aa8f2b057f)"><path fill="#212529" d="M 368.398438 228.898438 L 379.648438 228.898438 L 379.648438 244.648438 L 368.398438 244.648438 Z M 368.398438 228.898438 " fill-opacity="1" fill-rule="nonzero"/></g></g></svg>