<svg xmlns="http://www.w3.org/2000/svg" xmlns:xlink="http://www.w3.org/1999/xlink" width="500" zoomAndPan="magnify" viewBox="0 0 375 374.999991" height="500" preserveAspectRatio="xMidYMid meet" version="1.0"><defs><g/><clipPath id="e69ce55309"><path d="M 227 158 L 235 158 L 235 166 L 227 166 Z M 227 158 " clip-rule="nonzero"/></clipPath><clipPath id="3a3109b988"><path d="M 97.65625 249.9375 L 41.679688 58.453125 L 242.523438 -0.261719 L 298.5 191.222656 Z M 97.65625 249.9375 " clip-rule="nonzero"/></clipPath><clipPath id="d870c1f000"><path d="M 97.65625 249.9375 L 41.679688 58.453125 L 242.523438 -0.261719 L 298.5 191.222656 Z M 97.65625 249.9375 " clip-rule="nonzero"/></clipPath><clipPath id="08cac884c5"><path d="M 61 37 L 249 37 L 249 194 L 61 194 Z M 61 37 " clip-rule="nonzero"/></clipPath><clipPath id="e40527fd04"><path d="M 97.65625 249.9375 L 41.679688 58.453125 L 242.523438 -0.261719 L 298.5 191.222656 Z M 97.65625 249.9375 " clip-rule="nonzero"/></clipPath><clipPath id="ed92a4d14c"><path d="M 97.65625 249.9375 L 41.679688 58.453125 L 242.523438 -0.261719 L 298.5 191.222656 Z M 97.65625 249.9375 " clip-rule="nonzero"/></clipPath><clipPath id="4dfdac0be7"><path d="M 91.3125 228.226562 L 41.710938 58.570312 L 211.332031 8.980469 L 260.929688 178.640625 Z M 91.3125 228.226562 " clip-rule="nonzero"/></clipPath><clipPath id="91e9c5ef7a"><path d="M 91.3125 228.226562 L 41.71875 58.59375 L 211.335938 9.003906 L 260.929688 178.640625 Z M 91.3125 228.226562 " clip-rule="nonzero"/></clipPath><clipPath id="24c552cdcb"><path d="M 249 176 L 254 176 L 254 181 L 249 181 Z M 249 176 " clip-rule="nonzero"/></clipPath><clipPath id="d13dd46721"><path d="M 97.65625 249.9375 L 41.679688 58.453125 L 242.523438 -0.261719 L 298.5 191.222656 Z M 97.65625 249.9375 " clip-rule="nonzero"/></clipPath><clipPath id="c58efcc1d8"><path d="M 97.65625 249.9375 L 41.679688 58.453125 L 242.523438 -0.261719 L 298.5 191.222656 Z M 97.65625 249.9375 " clip-rule="nonzero"/></clipPath><clipPath id="44c0b2254e"><path d="M 252 161 L 257 161 L 257 166 L 252 166 Z M 252 161 " clip-rule="nonzero"/></clipPath><clipPath id="049d9ddcbb"><path d="M 97.65625 249.9375 L 41.679688 58.453125 L 242.523438 -0.261719 L 298.5 191.222656 Z M 97.65625 249.9375 " clip-rule="nonzero"/></clipPath><clipPath id="87a4ee4b86"><path d="M 97.65625 249.9375 L 41.679688 58.453125 L 242.523438 -0.261719 L 298.5 191.222656 Z M 97.65625 249.9375 " clip-rule="nonzero"/></clipPath><clipPath id="a58def9607"><path d="M 288 189 L 293 189 L 293 194 L 288 194 Z M 288 189 " clip-rule="nonzero"/></clipPath><clipPath id="40717ecd34"><path d="M 97.65625 249.9375 L 41.679688 58.453125 L 242.523438 -0.261719 L 298.5 191.222656 Z M 97.65625 249.9375 " clip-rule="nonzero"/></clipPath><clipPath id="48f0dc8506"><path d="M 97.65625 249.9375 L 41.679688 58.453125 L 242.523438 -0.261719 L 298.5 191.222656 Z M 97.65625 249.9375 " clip-rule="nonzero"/></clipPath><clipPath id="334add62fe"><path d="M 264 169 L 268 169 L 268 174 L 264 174 Z M 264 169 " clip-rule="nonzero"/></clipPath><clipPath id="e024fcf632"><path d="M 97.65625 249.9375 L 41.679688 58.453125 L 242.523438 -0.261719 L 298.5 191.222656 Z M 97.65625 249.9375 " clip-rule="nonzero"/></clipPath><clipPath id="6b32248494"><path d="M 97.65625 249.9375 L 41.679688 58.453125 L 242.523438 -0.261719 L 298.5 191.222656 Z M 97.65625 249.9375 " clip-rule="nonzero"/></clipPath><clipPath id="32bbed9627"><path d="M 271 182 L 275 182 L 275 186 L 271 186 Z M 271 182 " clip-rule="nonzero"/></clipPath><clipPath id="e7645761dc"><path d="M 97.65625 249.9375 L 41.679688 58.453125 L 242.523438 -0.261719 L 298.5 191.222656 Z M 97.65625 249.9375 " clip-rule="nonzero"/></clipPath><clipPath id="f4e5f1ea4c"><path d="M 97.65625 249.9375 L 41.679688 58.453125 L 242.523438 -0.261719 L 298.5 191.222656 Z M 97.65625 249.9375 " clip-rule="nonzero"/></clipPath><clipPath id="4f8123b7ba"><path d="M 287 165 L 292 165 L 292 170 L 287 170 Z M 287 165 " clip-rule="nonzero"/></clipPath><clipPath id="4beef4cf3d"><path d="M 97.65625 249.9375 L 41.679688 58.453125 L 242.523438 -0.261719 L 298.5 191.222656 Z M 97.65625 249.9375 " clip-rule="nonzero"/></clipPath><clipPath id="d0fc556b7e"><path d="M 97.65625 249.9375 L 41.679688 58.453125 L 242.523438 -0.261719 L 298.5 191.222656 Z M 97.65625 249.9375 " clip-rule="nonzero"/></clipPath><clipPath id="365afb614e"><path d="M 267 152 L 272 152 L 272 157 L 267 157 Z M 267 152 " clip-rule="nonzero"/></clipPath><clipPath id="be46213587"><path d="M 97.65625 249.9375 L 41.679688 58.453125 L 242.523438 -0.261719 L 298.5 191.222656 Z M 97.65625 249.9375 " clip-rule="nonzero"/></clipPath><clipPath id="ed765c3c55"><path d="M 97.65625 249.9375 L 41.679688 58.453125 L 242.523438 -0.261719 L 298.5 191.222656 Z M 97.65625 249.9375 " clip-rule="nonzero"/></clipPath><clipPath id="5775af10d7"><path d="M 85 70 L 186 70 L 186 109 L 85 109 Z M 85 70 " clip-rule="nonzero"/></clipPath><clipPath id="ee96b9c02d"><path d="M 94.339844 54.554688 L 204.839844 110.265625 L 176.140625 167.191406 L 65.640625 111.480469 Z M 94.339844 54.554688 " clip-rule="nonzero"/></clipPath><clipPath id="bc4f605d29"><path d="M 94.339844 54.554688 L 204.839844 110.265625 L 176.140625 167.191406 L 65.640625 111.480469 Z M 94.339844 54.554688 " clip-rule="nonzero"/></clipPath><clipPath id="910d9f6a71"><path d="M 163 160 L 164 160 L 164 161 L 163 161 Z M 163 160 " clip-rule="nonzero"/></clipPath><clipPath id="cd6d4f88a4"><path d="M 94.339844 54.554688 L 204.839844 110.265625 L 176.140625 167.191406 L 65.640625 111.480469 Z M 94.339844 54.554688 " clip-rule="nonzero"/></clipPath><clipPath id="486130ca17"><path d="M 94.339844 54.554688 L 204.839844 110.265625 L 176.140625 167.191406 L 65.640625 111.480469 Z M 94.339844 54.554688 " clip-rule="nonzero"/></clipPath><clipPath id="f9249f85c6"><path d="M 163 159 L 164 159 L 164 160 L 163 160 Z M 163 159 " clip-rule="nonzero"/></clipPath><clipPath id="3313fe33cf"><path d="M 94.339844 54.554688 L 204.839844 110.265625 L 176.140625 167.191406 L 65.640625 111.480469 Z M 94.339844 54.554688 " clip-rule="nonzero"/></clipPath><clipPath id="86c8a34b0e"><path d="M 94.339844 54.554688 L 204.839844 110.265625 L 176.140625 167.191406 L 65.640625 111.480469 Z M 94.339844 54.554688 " clip-rule="nonzero"/></clipPath><clipPath id="b715449df6"><path d="M 88 82 L 167 82 L 167 162 L 88 162 Z M 88 82 " clip-rule="nonzero"/></clipPath><clipPath id="dbdca25ca1"><path d="M 94.339844 54.554688 L 204.839844 110.265625 L 176.140625 167.191406 L 65.640625 111.480469 Z M 94.339844 54.554688 " clip-rule="nonzero"/></clipPath><clipPath id="c047730ca8"><path d="M 94.339844 54.554688 L 204.839844 110.265625 L 176.140625 167.191406 L 65.640625 111.480469 Z M 94.339844 54.554688 " clip-rule="nonzero"/></clipPath><clipPath id="a969133f88"><path d="M 163 159 L 164 159 L 164 160 L 163 160 Z M 163 159 " clip-rule="nonzero"/></clipPath><clipPath id="e63eb0dc51"><path d="M 94.339844 54.554688 L 204.839844 110.265625 L 176.140625 167.191406 L 65.640625 111.480469 Z M 94.339844 54.554688 " clip-rule="nonzero"/></clipPath><clipPath id="246c367ff1"><path d="M 94.339844 54.554688 L 204.839844 110.265625 L 176.140625 167.191406 L 65.640625 111.480469 Z M 94.339844 54.554688 " clip-rule="nonzero"/></clipPath><clipPath id="a6262c7a98"><path d="M 163 159 L 164 159 L 164 161 L 163 161 Z M 163 159 " clip-rule="nonzero"/></clipPath><clipPath id="a56eb863ed"><path d="M 94.339844 54.554688 L 204.839844 110.265625 L 176.140625 167.191406 L 65.640625 111.480469 Z M 94.339844 54.554688 " clip-rule="nonzero"/></clipPath><clipPath id="5174fe6248"><path d="M 94.339844 54.554688 L 204.839844 110.265625 L 176.140625 167.191406 L 65.640625 111.480469 Z M 94.339844 54.554688 " clip-rule="nonzero"/></clipPath><clipPath id="a1d86fc1a2"><path d="M 163 160 L 164 160 L 164 161 L 163 161 Z M 163 160 " clip-rule="nonzero"/></clipPath><clipPath id="d5a1213726"><path d="M 94.339844 54.554688 L 204.839844 110.265625 L 176.140625 167.191406 L 65.640625 111.480469 Z M 94.339844 54.554688 " clip-rule="nonzero"/></clipPath><clipPath id="8b8ee6dc70"><path d="M 94.339844 54.554688 L 204.839844 110.265625 L 176.140625 167.191406 L 65.640625 111.480469 Z M 94.339844 54.554688 " clip-rule="nonzero"/></clipPath><clipPath id="7b26bc5d65"><path d="M 163 159 L 164 159 L 164 160 L 163 160 Z M 163 159 " clip-rule="nonzero"/></clipPath><clipPath id="56a72c52ca"><path d="M 94.339844 54.554688 L 204.839844 110.265625 L 176.140625 167.191406 L 65.640625 111.480469 Z M 94.339844 54.554688 " clip-rule="nonzero"/></clipPath><clipPath id="713914642e"><path d="M 94.339844 54.554688 L 204.839844 110.265625 L 176.140625 167.191406 L 65.640625 111.480469 Z M 94.339844 54.554688 " clip-rule="nonzero"/></clipPath><clipPath id="8094487f1c"><path d="M 90 89 L 123 89 L 123 118 L 90 118 Z M 90 89 " clip-rule="nonzero"/></clipPath><clipPath id="e811d79e0c"><path d="M 94.339844 54.554688 L 204.839844 110.265625 L 176.140625 167.191406 L 65.640625 111.480469 Z M 94.339844 54.554688 " clip-rule="nonzero"/></clipPath><clipPath id="afc1850e18"><path d="M 94.339844 54.554688 L 204.839844 110.265625 L 176.140625 167.191406 L 65.640625 111.480469 Z M 94.339844 54.554688 " clip-rule="nonzero"/></clipPath><clipPath id="dc49ba4c66"><path d="M 137 102 L 190 102 L 190 142 L 137 142 Z M 137 102 " clip-rule="nonzero"/></clipPath><clipPath id="54d4685a5b"><path d="M 94.339844 54.554688 L 204.839844 110.265625 L 176.140625 167.191406 L 65.640625 111.480469 Z M 94.339844 54.554688 " clip-rule="nonzero"/></clipPath><clipPath id="00a31ed82e"><path d="M 94.339844 54.554688 L 204.839844 110.265625 L 176.140625 167.191406 L 65.640625 111.480469 Z M 94.339844 54.554688 " clip-rule="nonzero"/></clipPath><clipPath id="a9ac5bb123"><path d="M 139 110 L 163 110 L 163 132 L 139 132 Z M 139 110 " clip-rule="nonzero"/></clipPath><clipPath id="a296f0d583"><path d="M 94.339844 54.554688 L 204.839844 110.265625 L 176.140625 167.191406 L 65.640625 111.480469 Z M 94.339844 54.554688 " clip-rule="nonzero"/></clipPath><clipPath id="eef8bbccb1"><path d="M 94.339844 54.554688 L 204.839844 110.265625 L 176.140625 167.191406 L 65.640625 111.480469 Z M 94.339844 54.554688 " clip-rule="nonzero"/></clipPath><clipPath id="bb143393e2"><path d="M 173 111 L 192 111 L 192 118 L 173 118 Z M 173 111 " clip-rule="nonzero"/></clipPath><clipPath id="165c9b946f"><path d="M 94.339844 54.554688 L 204.839844 110.265625 L 176.140625 167.191406 L 65.640625 111.480469 Z M 94.339844 54.554688 " clip-rule="nonzero"/></clipPath><clipPath id="b1843b1d87"><path d="M 94.339844 54.554688 L 204.839844 110.265625 L 176.140625 167.191406 L 65.640625 111.480469 Z M 94.339844 54.554688 " clip-rule="nonzero"/></clipPath><clipPath id="609198f200"><path d="M 153 132 L 178 132 L 178 153 L 153 153 Z M 153 132 " clip-rule="nonzero"/></clipPath><clipPath id="d12fe84319"><path d="M 94.339844 54.554688 L 204.839844 110.265625 L 176.140625 167.191406 L 65.640625 111.480469 Z M 94.339844 54.554688 " clip-rule="nonzero"/></clipPath><clipPath id="502222bc18"><path d="M 94.339844 54.554688 L 204.839844 110.265625 L 176.140625 167.191406 L 65.640625 111.480469 Z M 94.339844 54.554688 " clip-rule="nonzero"/></clipPath><clipPath id="0036ea9ae1"><path d="M 249.601562 177.03125 L 253.355469 177.03125 L 253.355469 180.785156 L 249.601562 180.785156 Z M 249.601562 177.03125 " clip-rule="nonzero"/></clipPath><clipPath id="1d784c10d3"><path d="M 251.476562 177.03125 C 250.441406 177.03125 249.601562 177.871094 249.601562 178.90625 C 249.601562 179.941406 250.441406 180.78125 251.476562 180.78125 C 252.511719 180.78125 253.351562 179.941406 253.351562 178.90625 C 253.351562 177.871094 252.511719 177.03125 251.476562 177.03125 " clip-rule="nonzero"/></clipPath><clipPath id="ffafc12783"><path d="M 271.046875 182.492188 L 274.804688 182.492188 L 274.804688 186.246094 L 271.046875 186.246094 Z M 271.046875 182.492188 " clip-rule="nonzero"/></clipPath><clipPath id="574faa7bf1"><path d="M 272.921875 182.492188 C 271.886719 182.492188 271.046875 183.328125 271.046875 184.367188 C 271.046875 185.402344 271.886719 186.242188 272.921875 186.242188 C 273.957031 186.242188 274.796875 185.402344 274.796875 184.367188 C 274.796875 183.328125 273.957031 182.492188 272.921875 182.492188 " clip-rule="nonzero"/></clipPath><clipPath id="d8f11baa82"><path d="M 288.863281 189.402344 L 292.617188 189.402344 L 292.617188 193.160156 L 288.863281 193.160156 Z M 288.863281 189.402344 " clip-rule="nonzero"/></clipPath><clipPath id="2f22b7151b"><path d="M 290.738281 189.402344 C 289.699219 189.402344 288.863281 190.242188 288.863281 191.277344 C 288.863281 192.3125 289.699219 193.152344 290.738281 193.152344 C 291.773438 193.152344 292.613281 192.3125 292.613281 191.277344 C 292.613281 190.242188 291.773438 189.402344 290.738281 189.402344 " clip-rule="nonzero"/></clipPath><clipPath id="ca3c57f284"><path d="M 252.53125 161.796875 L 256.289062 161.796875 L 256.289062 165.550781 L 252.53125 165.550781 Z M 252.53125 161.796875 " clip-rule="nonzero"/></clipPath><clipPath id="a3730247af"><path d="M 254.40625 161.796875 C 253.371094 161.796875 252.53125 162.636719 252.53125 163.671875 C 252.53125 164.707031 253.371094 165.546875 254.40625 165.546875 C 255.445312 165.546875 256.28125 164.707031 256.28125 163.671875 C 256.28125 162.636719 255.445312 161.796875 254.40625 161.796875 " clip-rule="nonzero"/></clipPath><clipPath id="50fdaf90f4"><path d="M 263.804688 169.796875 L 267.5625 169.796875 L 267.5625 173.554688 L 263.804688 173.554688 Z M 263.804688 169.796875 " clip-rule="nonzero"/></clipPath><clipPath id="256a780d71"><path d="M 265.679688 169.796875 C 264.644531 169.796875 263.804688 170.636719 263.804688 171.671875 C 263.804688 172.710938 264.644531 173.546875 265.679688 173.546875 C 266.71875 173.546875 267.554688 172.710938 267.554688 171.671875 C 267.554688 170.636719 266.71875 169.796875 265.679688 169.796875 " clip-rule="nonzero"/></clipPath><clipPath id="54f7db2bf6"><path d="M 267.601562 152.730469 L 271.355469 152.730469 L 271.355469 156.484375 L 267.601562 156.484375 Z M 267.601562 152.730469 " clip-rule="nonzero"/></clipPath><clipPath id="8bfd3bd121"><path d="M 269.476562 152.730469 C 268.441406 152.730469 267.601562 153.566406 267.601562 154.605469 C 267.601562 155.640625 268.441406 156.480469 269.476562 156.480469 C 270.511719 156.480469 271.351562 155.640625 271.351562 154.605469 C 271.351562 153.566406 270.511719 152.730469 269.476562 152.730469 " clip-rule="nonzero"/></clipPath><clipPath id="746b551328"><path d="M 287.441406 165.457031 L 291.199219 165.457031 L 291.199219 169.210938 L 287.441406 169.210938 Z M 287.441406 165.457031 " clip-rule="nonzero"/></clipPath><clipPath id="94c41664e9"><path d="M 289.316406 165.457031 C 288.28125 165.457031 287.441406 166.296875 287.441406 167.332031 C 287.441406 168.367188 288.28125 169.207031 289.316406 169.207031 C 290.355469 169.207031 291.191406 168.367188 291.191406 167.332031 C 291.191406 166.296875 290.355469 165.457031 289.316406 165.457031 " clip-rule="nonzero"/></clipPath></defs><g fill="#adb5bd" fill-opacity="1"><g transform="translate(11.437288, 357.617151)"><g><path d="M 77.09375 -70.984375 L 50.203125 -70.984375 L 50.203125 0 L 27.53125 0 L 27.53125 -70.984375 L 0.890625 -70.984375 L 0.890625 -89.328125 L 77.09375 -89.328125 Z M 77.09375 -70.984375 "/></g></g></g><g fill="#adb5bd" fill-opacity="1"><g transform="translate(89.295265, 357.617151)"><g><path d="M 78.75 -71.359375 L 31.609375 -71.359375 L 31.609375 -53.65625 L 74.171875 -53.65625 L 74.171875 -35.8125 L 31.609375 -35.8125 L 31.609375 -17.84375 L 80.15625 -17.84375 L 80.15625 0 L 8.921875 0 L 8.921875 -89.203125 L 78.75 -89.203125 Z M 78.75 -71.359375 "/></g></g></g><g fill="#adb5bd" fill-opacity="1"><g transform="translate(175.181153, 357.617151)"><g><path d="M 50.71875 -89.96875 C 57.34375 -89.96875 63.863281 -88.609375 70.28125 -85.890625 C 76.695312 -83.171875 82.15625 -79.519531 86.65625 -74.9375 L 73.53125 -59.390625 C 70.644531 -62.953125 67.179688 -65.773438 63.140625 -67.859375 C 59.109375 -69.941406 55.097656 -70.984375 51.109375 -70.984375 C 44.054688 -70.984375 38.148438 -68.5 33.390625 -63.53125 C 28.628906 -58.5625 26.25 -52.421875 26.25 -45.109375 C 26.25 -37.628906 28.628906 -31.382812 33.390625 -26.375 C 38.148438 -21.363281 44.054688 -18.859375 51.109375 -18.859375 C 54.835938 -18.859375 58.71875 -19.789062 62.75 -21.65625 C 66.789062 -23.53125 70.382812 -26.082031 73.53125 -29.3125 L 86.78125 -15.296875 C 81.9375 -10.367188 76.222656 -6.414062 69.640625 -3.4375 C 63.054688 -0.46875 56.492188 1.015625 49.953125 1.015625 C 36.535156 1.015625 25.363281 -3.359375 16.4375 -12.109375 C 7.519531 -20.859375 3.0625 -31.773438 3.0625 -44.859375 C 3.0625 -57.679688 7.601562 -68.40625 16.6875 -77.03125 C 25.78125 -85.65625 37.125 -89.96875 50.71875 -89.96875 Z M 50.71875 -89.96875 "/></g></g></g><g fill="#adb5bd" fill-opacity="1"><g transform="translate(263.360727, 357.617151)"><g><path d="M 91.25 0 L 68.5625 0 L 68.5625 -34.65625 L 31.609375 -34.65625 L 31.609375 0 L 8.921875 0 L 8.921875 -89.203125 L 31.609375 -89.203125 L 31.609375 -52.5 L 68.5625 -52.5 L 68.5625 -89.203125 L 91.25 -89.203125 Z M 91.25 0 "/></g></g></g><g fill="#00ff66" fill-opacity="1"><g transform="translate(-2.842099, 253.226717)"><g><path d="M 25.53125 -47.640625 C 28.175781 -47.640625 30.789062 -47.335938 33.375 -46.734375 C 35.96875 -46.128906 37.894531 -45.523438 39.15625 -44.921875 L 41.046875 -44.03125 L 35.8125 -33.5625 C 32.207031 -35.488281 28.78125 -36.453125 25.53125 -36.453125 C 23.726562 -36.453125 22.445312 -36.253906 21.6875 -35.859375 C 20.9375 -35.472656 20.5625 -34.738281 20.5625 -33.65625 C 20.5625 -33.414062 20.59375 -33.171875 20.65625 -32.921875 C 20.71875 -32.679688 20.835938 -32.457031 21.015625 -32.25 C 21.203125 -32.039062 21.367188 -31.859375 21.515625 -31.703125 C 21.671875 -31.554688 21.925781 -31.390625 22.28125 -31.203125 C 22.644531 -31.023438 22.929688 -30.890625 23.140625 -30.796875 C 23.347656 -30.710938 23.691406 -30.582031 24.171875 -30.40625 C 24.660156 -30.226562 25.023438 -30.09375 25.265625 -30 C 25.503906 -29.90625 25.910156 -29.769531 26.484375 -29.59375 C 27.054688 -29.414062 27.488281 -29.296875 27.78125 -29.234375 C 29.644531 -28.691406 31.269531 -28.085938 32.65625 -27.421875 C 34.039062 -26.765625 35.5 -25.863281 37.03125 -24.71875 C 38.5625 -23.570312 39.75 -22.125 40.59375 -20.375 C 41.4375 -18.632812 41.859375 -16.65625 41.859375 -14.4375 C 41.859375 -3.90625 34.550781 1.359375 19.9375 1.359375 C 16.625 1.359375 13.476562 0.847656 10.5 -0.171875 C 7.53125 -1.203125 5.382812 -2.226562 4.0625 -3.25 L 2.078125 -4.875 L 8.578125 -15.78125 C 9.054688 -15.363281 9.6875 -14.867188 10.46875 -14.296875 C 11.25 -13.722656 12.660156 -12.941406 14.703125 -11.953125 C 16.742188 -10.960938 18.519531 -10.46875 20.03125 -10.46875 C 23.332031 -10.46875 24.984375 -11.578125 24.984375 -13.796875 C 24.984375 -14.828125 24.5625 -15.625 23.71875 -16.1875 C 22.882812 -16.757812 21.457031 -17.40625 19.4375 -18.125 C 17.425781 -18.851562 15.847656 -19.519531 14.703125 -20.125 C 11.816406 -21.625 9.53125 -23.320312 7.84375 -25.21875 C 6.164062 -27.113281 5.328125 -29.625 5.328125 -32.75 C 5.328125 -37.4375 7.144531 -41.085938 10.78125 -43.703125 C 14.414062 -46.328125 19.332031 -47.640625 25.53125 -47.640625 Z M 25.53125 -47.640625 "/></g></g></g><g fill="#00ff66" fill-opacity="1"><g transform="translate(33.061081, 253.226717)"><g><path d="M 52.234375 -20.9375 L 18.671875 -20.9375 C 18.671875 -17.6875 19.722656 -15.28125 21.828125 -13.71875 C 23.929688 -12.15625 26.21875 -11.375 28.6875 -11.375 C 31.269531 -11.375 33.3125 -11.71875 34.8125 -12.40625 C 36.320312 -13.09375 38.039062 -14.460938 39.96875 -16.515625 L 51.515625 -10.734375 C 46.703125 -2.671875 38.703125 1.359375 27.515625 1.359375 C 20.535156 1.359375 14.550781 -1.03125 9.5625 -5.8125 C 4.570312 -10.59375 2.078125 -16.351562 2.078125 -23.09375 C 2.078125 -29.832031 4.570312 -35.609375 9.5625 -40.421875 C 14.550781 -45.234375 20.535156 -47.640625 27.515625 -47.640625 C 34.847656 -47.640625 40.816406 -45.519531 45.421875 -41.28125 C 50.023438 -37.039062 52.328125 -30.976562 52.328125 -23.09375 C 52.328125 -22.007812 52.296875 -21.289062 52.234375 -20.9375 Z M 19.125 -29.765625 L 36.71875 -29.765625 C 36.351562 -32.171875 35.40625 -34.019531 33.875 -35.3125 C 32.34375 -36.613281 30.375 -37.265625 27.96875 -37.265625 C 25.320312 -37.265625 23.21875 -36.570312 21.65625 -35.1875 C 20.09375 -33.800781 19.25 -31.992188 19.125 -29.765625 Z M 19.125 -29.765625 "/></g></g></g><g fill="#00ff66" fill-opacity="1"><g transform="translate(78.97767, 253.226717)"><g><path d="M 8.5625 -5.71875 C 4.238281 -10.445312 2.078125 -16.238281 2.078125 -23.09375 C 2.078125 -29.945312 4.238281 -35.75 8.5625 -40.5 C 12.894531 -45.257812 18.398438 -47.640625 25.078125 -47.640625 C 31.210938 -47.640625 36.265625 -45.710938 40.234375 -41.859375 L 40.234375 -46.28125 L 56.203125 -46.28125 L 56.203125 0 L 40.421875 0 L 40.421875 -5.234375 L 40.234375 -5.234375 C 36.265625 -0.835938 31.210938 1.359375 25.078125 1.359375 C 18.398438 1.359375 12.894531 -1 8.5625 -5.71875 Z M 22.140625 -30.9375 C 20.066406 -28.894531 19.03125 -26.28125 19.03125 -23.09375 C 19.03125 -19.90625 20.019531 -17.300781 22 -15.28125 C 23.988281 -13.269531 26.609375 -12.265625 29.859375 -12.265625 C 32.984375 -12.265625 35.550781 -13.285156 37.5625 -15.328125 C 39.582031 -17.378906 40.59375 -19.96875 40.59375 -23.09375 C 40.59375 -26.28125 39.554688 -28.894531 37.484375 -30.9375 C 35.410156 -32.988281 32.867188 -34.015625 29.859375 -34.015625 C 26.796875 -34.015625 24.222656 -32.988281 22.140625 -30.9375 Z M 22.140625 -30.9375 "/></g></g></g><g fill="#00ff66" fill-opacity="1"><g transform="translate(132.111131, 253.226717)"><g><path d="M 25.53125 -47.640625 C 28.175781 -47.640625 30.789062 -47.335938 33.375 -46.734375 C 35.96875 -46.128906 37.894531 -45.523438 39.15625 -44.921875 L 41.046875 -44.03125 L 35.8125 -33.5625 C 32.207031 -35.488281 28.78125 -36.453125 25.53125 -36.453125 C 23.726562 -36.453125 22.445312 -36.253906 21.6875 -35.859375 C 20.9375 -35.472656 20.5625 -34.738281 20.5625 -33.65625 C 20.5625 -33.414062 20.59375 -33.171875 20.65625 -32.921875 C 20.71875 -32.679688 20.835938 -32.457031 21.015625 -32.25 C 21.203125 -32.039062 21.367188 -31.859375 21.515625 -31.703125 C 21.671875 -31.554688 21.925781 -31.390625 22.28125 -31.203125 C 22.644531 -31.023438 22.929688 -30.890625 23.140625 -30.796875 C 23.347656 -30.710938 23.691406 -30.582031 24.171875 -30.40625 C 24.660156 -30.226562 25.023438 -30.09375 25.265625 -30 C 25.503906 -29.90625 25.910156 -29.769531 26.484375 -29.59375 C 27.054688 -29.414062 27.488281 -29.296875 27.78125 -29.234375 C 29.644531 -28.691406 31.269531 -28.085938 32.65625 -27.421875 C 34.039062 -26.765625 35.5 -25.863281 37.03125 -24.71875 C 38.5625 -23.570312 39.75 -22.125 40.59375 -20.375 C 41.4375 -18.632812 41.859375 -16.65625 41.859375 -14.4375 C 41.859375 -3.90625 34.550781 1.359375 19.9375 1.359375 C 16.625 1.359375 13.476562 0.847656 10.5 -0.171875 C 7.53125 -1.203125 5.382812 -2.226562 4.0625 -3.25 L 2.078125 -4.875 L 8.578125 -15.78125 C 9.054688 -15.363281 9.6875 -14.867188 10.46875 -14.296875 C 11.25 -13.722656 12.660156 -12.941406 14.703125 -11.953125 C 16.742188 -10.960938 18.519531 -10.46875 20.03125 -10.46875 C 23.332031 -10.46875 24.984375 -11.578125 24.984375 -13.796875 C 24.984375 -14.828125 24.5625 -15.625 23.71875 -16.1875 C 22.882812 -16.757812 21.457031 -17.40625 19.4375 -18.125 C 17.425781 -18.851562 15.847656 -19.519531 14.703125 -20.125 C 11.816406 -21.625 9.53125 -23.320312 7.84375 -25.21875 C 6.164062 -27.113281 5.328125 -29.625 5.328125 -32.75 C 5.328125 -37.4375 7.144531 -41.085938 10.78125 -43.703125 C 14.414062 -46.328125 19.332031 -47.640625 25.53125 -47.640625 Z M 25.53125 -47.640625 "/></g></g></g><g fill="#00ff66" fill-opacity="1"><g transform="translate(168.014312, 253.226717)"><g><path d="M 9.78125 -5.5 C 4.644531 -10.070312 2.078125 -15.9375 2.078125 -23.09375 C 2.078125 -30.25 4.753906 -36.128906 10.109375 -40.734375 C 15.460938 -45.335938 22.078125 -47.640625 29.953125 -47.640625 C 37.710938 -47.640625 44.253906 -45.320312 49.578125 -40.6875 C 54.898438 -36.050781 57.5625 -30.1875 57.5625 -23.09375 C 57.5625 -16 54.957031 -10.148438 49.75 -5.546875 C 44.550781 -0.941406 37.953125 1.359375 29.953125 1.359375 C 21.648438 1.359375 14.925781 -0.925781 9.78125 -5.5 Z M 22.140625 -30.9375 C 20.066406 -28.894531 19.03125 -26.28125 19.03125 -23.09375 C 19.03125 -19.90625 20.019531 -17.300781 22 -15.28125 C 23.988281 -13.269531 26.609375 -12.265625 29.859375 -12.265625 C 32.984375 -12.265625 35.550781 -13.285156 37.5625 -15.328125 C 39.582031 -17.378906 40.59375 -19.96875 40.59375 -23.09375 C 40.59375 -26.28125 39.554688 -28.894531 37.484375 -30.9375 C 35.410156 -32.988281 32.867188 -34.015625 29.859375 -34.015625 C 26.796875 -34.015625 24.222656 -32.988281 22.140625 -30.9375 Z M 22.140625 -30.9375 "/></g></g></g><g fill="#00ff66" fill-opacity="1"><g transform="translate(219.163151, 253.226717)"><g><path d="M 5.40625 0 L 5.40625 -46.28125 L 21.375 -46.28125 L 21.375 -41.40625 L 21.5625 -41.40625 C 25.707031 -45.5625 30.128906 -47.640625 34.828125 -47.640625 C 37.109375 -47.640625 39.375 -47.335938 41.625 -46.734375 C 43.882812 -46.128906 46.050781 -45.195312 48.125 -43.9375 C 50.207031 -42.675781 51.894531 -40.882812 53.1875 -38.5625 C 54.476562 -36.25 55.125 -33.5625 55.125 -30.5 L 55.125 0 L 39.15625 0 L 39.15625 -26.15625 C 39.15625 -28.5625 38.382812 -30.664062 36.84375 -32.46875 C 35.3125 -34.28125 33.316406 -35.1875 30.859375 -35.1875 C 28.453125 -35.1875 26.269531 -34.253906 24.3125 -32.390625 C 22.351562 -30.523438 21.375 -28.445312 21.375 -26.15625 L 21.375 0 Z M 5.40625 0 "/></g></g></g><g fill="#00ff66" fill-opacity="1"><g transform="translate(270.311966, 253.226717)"><g><path d="M 52.234375 -20.9375 L 18.671875 -20.9375 C 18.671875 -17.6875 19.722656 -15.28125 21.828125 -13.71875 C 23.929688 -12.15625 26.21875 -11.375 28.6875 -11.375 C 31.269531 -11.375 33.3125 -11.71875 34.8125 -12.40625 C 36.320312 -13.09375 38.039062 -14.460938 39.96875 -16.515625 L 51.515625 -10.734375 C 46.703125 -2.671875 38.703125 1.359375 27.515625 1.359375 C 20.535156 1.359375 14.550781 -1.03125 9.5625 -5.8125 C 4.570312 -10.59375 2.078125 -16.351562 2.078125 -23.09375 C 2.078125 -29.832031 4.570312 -35.609375 9.5625 -40.421875 C 14.550781 -45.234375 20.535156 -47.640625 27.515625 -47.640625 C 34.847656 -47.640625 40.816406 -45.519531 45.421875 -41.28125 C 50.023438 -37.039062 52.328125 -30.976562 52.328125 -23.09375 C 52.328125 -22.007812 52.296875 -21.289062 52.234375 -20.9375 Z M 19.125 -29.765625 L 36.71875 -29.765625 C 36.351562 -32.171875 35.40625 -34.019531 33.875 -35.3125 C 32.34375 -36.613281 30.375 -37.265625 27.96875 -37.265625 C 25.320312 -37.265625 23.21875 -36.570312 21.65625 -35.1875 C 20.09375 -33.800781 19.25 -31.992188 19.125 -29.765625 Z M 19.125 -29.765625 "/></g></g></g><g fill="#00ff66" fill-opacity="1"><g transform="translate(316.228544, 253.226717)"><g><path d="M 8.5625 -5.71875 C 4.238281 -10.445312 2.078125 -16.238281 2.078125 -23.09375 C 2.078125 -29.945312 4.238281 -35.75 8.5625 -40.5 C 12.894531 -45.257812 18.398438 -47.640625 25.078125 -47.640625 C 31.210938 -47.640625 36.265625 -45.710938 40.234375 -41.859375 L 40.234375 -77.59375 L 56.203125 -77.59375 L 56.203125 0 L 40.421875 0 L 40.421875 -5.234375 L 40.234375 -5.234375 C 36.265625 -0.835938 31.210938 1.359375 25.078125 1.359375 C 18.398438 1.359375 12.894531 -1 8.5625 -5.71875 Z M 22.140625 -30.9375 C 20.066406 -28.894531 19.03125 -26.28125 19.03125 -23.09375 C 19.03125 -19.90625 20.019531 -17.300781 22 -15.28125 C 23.988281 -13.269531 26.609375 -12.265625 29.859375 -12.265625 C 32.984375 -12.265625 35.550781 -13.285156 37.5625 -15.328125 C 39.582031 -17.378906 40.59375 -19.96875 40.59375 -23.09375 C 40.59375 -26.28125 39.554688 -28.894531 37.484375 -30.9375 C 35.410156 -32.988281 32.867188 -34.015625 29.859375 -34.015625 C 26.796875 -34.015625 24.222656 -32.988281 22.140625 -30.9375 Z M 22.140625 -30.9375 "/></g></g></g><g clip-path="url(#e69ce55309)"><g clip-path="url(#3a3109b988)"><g clip-path="url(#d870c1f000)"><path fill="#adb5bd" d="M 229.160156 165.035156 C 230.796875 165.933594 232.851562 165.332031 233.75 163.695312 C 234.648438 162.054688 234.046875 160.003906 232.410156 159.105469 C 230.769531 158.207031 228.714844 158.808594 227.816406 160.449219 C 226.921875 162.085938 227.519531 164.140625 229.160156 165.035156 " fill-opacity="1" fill-rule="nonzero"/></g></g></g><g clip-path="url(#08cac884c5)"><g clip-path="url(#e40527fd04)"><g clip-path="url(#ed92a4d14c)"><g clip-path="url(#4dfdac0be7)"><g clip-path="url(#91e9c5ef7a)"><path fill="#adb5bd" d="M 120.492188 43.035156 C 122.332031 43.859375 124.140625 44.992188 126.027344 46.496094 L 203.949219 112.671875 L 174.6875 166.082031 L 76.960938 136.117188 C 74.667969 135.339844 72.726562 134.421875 71.03125 133.3125 C 66.578125 130.394531 56.152344 123.566406 80.207031 79.65625 C 104.261719 35.75 115.632812 40.851562 120.492188 43.035156 Z M 212.488281 110.785156 L 217.457031 113.503906 C 218.578125 114.121094 219.023438 115.632812 218.40625 116.757812 L 185.921875 176.054688 C 185.613281 176.617188 185.105469 177.027344 184.492188 177.207031 C 183.875 177.386719 183.226562 177.316406 182.667969 177.007812 L 177.699219 174.289062 C 177.136719 173.980469 176.730469 173.472656 176.550781 172.859375 C 176.371094 172.246094 176.441406 171.597656 176.746094 171.035156 L 209.234375 111.738281 C 209.542969 111.175781 210.050781 110.765625 210.664062 110.585938 C 211.277344 110.40625 211.929688 110.476562 212.488281 110.785156 Z M 232.585938 120.035156 L 231.535156 121.957031 L 196.320312 186.230469 L 188.65625 179.078125 L 222.425781 117.433594 Z M 243.023438 153.546875 C 241.40625 152.730469 239.417969 153.328125 238.539062 154.933594 C 237.640625 156.570312 238.242188 158.625 239.878906 159.519531 C 240.207031 159.699219 240.550781 159.804688 240.898438 159.867188 C 240.066406 161.925781 239.101562 163.980469 237.984375 166.011719 C 237.023438 167.769531 235.980469 169.457031 234.875 171.066406 C 234.621094 170.777344 234.324219 170.515625 233.964844 170.320312 C 232.328125 169.425781 230.269531 170.023438 229.375 171.664062 C 228.476562 173.300781 229.078125 175.355469 230.714844 176.25 C 230.746094 176.265625 230.777344 176.273438 230.804688 176.289062 C 227.039062 180.566406 222.761719 184.027344 218.226562 186.398438 C 211.46875 189.929688 204.894531 190.636719 199.488281 188.464844 L 217.832031 154.980469 L 236.171875 121.5 C 244.246094 127.242188 246.679688 139.96875 243.023438 153.546875 Z M 68.925781 136.53125 C 70.894531 137.820312 73.117188 138.875 75.777344 139.777344 L 173.175781 169.644531 C 172.566406 170.996094 172.433594 172.5 172.855469 173.941406 C 173.324219 175.542969 174.386719 176.863281 175.847656 177.664062 L 180.816406 180.382812 C 182.128906 181.101562 183.621094 181.292969 185.070312 180.996094 L 195.507812 190.734375 C 195.621094 190.839844 195.75 190.929688 195.882812 191.003906 C 195.886719 191.007812 195.890625 191.011719 195.894531 191.015625 C 202.761719 194.773438 211.328125 194.34375 220.011719 189.808594 C 228.4375 185.40625 236.019531 177.609375 241.363281 167.859375 C 248.308594 155.179688 250.070312 141.570312 247.058594 131.265625 C 245.230469 125.011719 241.640625 119.972656 236.390625 117.097656 C 236.382812 117.097656 236.378906 117.09375 236.371094 117.089844 C 236.335938 117.070312 236.292969 117.058594 236.253906 117.042969 C 236.167969 117.003906 236.078125 116.964844 235.988281 116.941406 C 235.972656 116.9375 235.957031 116.925781 235.945312 116.921875 L 222.109375 113.378906 C 221.582031 111.996094 220.617188 110.847656 219.304688 110.128906 L 214.339844 107.410156 C 212.875 106.609375 211.1875 106.425781 209.585938 106.894531 C 208.144531 107.316406 206.949219 108.238281 206.136719 109.480469 L 128.496094 43.542969 C 128.484375 43.527344 128.46875 43.515625 128.453125 43.503906 C 126.304688 41.789062 124.214844 40.484375 122.070312 39.523438 C 112.4375 35.199219 99.53125 36.367188 76.828125 77.808594 C 54.125 119.25 60.097656 130.75 68.925781 136.53125 " fill-opacity="1" fill-rule="nonzero"/></g></g></g></g></g><g clip-path="url(#24c552cdcb)"><g clip-path="url(#d13dd46721)"><g clip-path="url(#c58efcc1d8)"><path fill="#adb5bd" d="M 253.273438 177.886719 C 253.132812 177.40625 252.800781 176.996094 252.347656 176.738281 C 252.125 176.617188 251.878906 176.542969 251.628906 176.523438 C 251.378906 176.488281 251.132812 176.507812 250.886719 176.578125 C 250.761719 176.617188 250.644531 176.664062 250.527344 176.722656 C 250.421875 176.78125 250.324219 176.851562 250.214844 176.9375 C 250.117188 177.019531 250.035156 177.097656 249.957031 177.199219 C 249.863281 177.292969 249.804688 177.402344 249.738281 177.503906 C 249.25 178.394531 249.613281 179.636719 250.5 180.113281 C 250.613281 180.175781 250.722656 180.234375 250.851562 180.265625 C 250.972656 180.308594 251.085938 180.332031 251.210938 180.347656 C 251.347656 180.359375 251.46875 180.363281 251.585938 180.355469 C 251.714844 180.332031 251.84375 180.308594 251.964844 180.273438 C 252.210938 180.203125 252.433594 180.097656 252.628906 179.933594 C 252.824219 179.78125 252.996094 179.585938 253.113281 179.351562 C 253.355469 178.902344 253.417969 178.378906 253.273438 177.886719 " fill-opacity="1" fill-rule="nonzero"/></g></g></g><g clip-path="url(#44c0b2254e)"><g clip-path="url(#049d9ddcbb)"><g clip-path="url(#87a4ee4b86)"><path fill="#adb5bd" d="M 253.261719 161.796875 C 253.167969 161.878906 253.070312 161.960938 252.992188 162.0625 C 252.914062 162.152344 252.835938 162.257812 252.773438 162.367188 C 252.710938 162.480469 252.667969 162.597656 252.636719 162.714844 C 252.589844 162.835938 252.574219 162.960938 252.554688 163.085938 C 252.539062 163.210938 252.539062 163.34375 252.546875 163.464844 C 252.566406 163.710938 252.636719 163.957031 252.757812 164.191406 C 252.816406 164.292969 252.886719 164.40625 252.96875 164.503906 C 253.050781 164.597656 253.132812 164.695312 253.238281 164.773438 C 253.328125 164.851562 253.429688 164.929688 253.539062 164.976562 C 253.648438 165.039062 253.773438 165.097656 253.890625 165.128906 C 254.007812 165.175781 254.136719 165.191406 254.261719 165.207031 C 254.386719 165.226562 254.507812 165.230469 254.636719 165.21875 C 254.765625 165.195312 254.878906 165.175781 255 165.136719 C 255.492188 164.992188 255.90625 164.671875 256.148438 164.214844 C 256.269531 163.992188 256.347656 163.753906 256.382812 163.503906 C 256.40625 163.257812 256.382812 162.996094 256.308594 162.75 C 256.238281 162.503906 256.121094 162.285156 255.96875 162.089844 C 255.804688 161.894531 255.609375 161.726562 255.386719 161.605469 C 255.164062 161.480469 254.925781 161.402344 254.679688 161.382812 C 254.429688 161.347656 254.167969 161.371094 253.921875 161.445312 C 253.796875 161.480469 253.691406 161.523438 253.574219 161.585938 C 253.460938 161.644531 253.359375 161.714844 253.261719 161.796875 " fill-opacity="1" fill-rule="nonzero"/></g></g></g><g clip-path="url(#a58def9607)"><g clip-path="url(#40717ecd34)"><g clip-path="url(#48f0dc8506)"><path fill="#adb5bd" d="M 289.710938 189.78125 C 289.613281 189.863281 289.519531 189.957031 289.441406 190.046875 C 289.363281 190.152344 289.285156 190.253906 289.226562 190.367188 C 288.921875 190.921875 288.90625 191.609375 289.207031 192.175781 C 289.265625 192.289062 289.335938 192.390625 289.417969 192.488281 C 289.5 192.582031 289.582031 192.679688 289.683594 192.757812 C 289.773438 192.835938 289.890625 192.910156 289.988281 192.976562 C 290.101562 193.035156 290.21875 193.082031 290.339844 193.125 C 290.457031 193.160156 290.585938 193.1875 290.707031 193.191406 C 290.832031 193.210938 290.953125 193.214844 291.085938 193.203125 C 291.214844 193.191406 291.34375 193.167969 291.464844 193.132812 C 291.957031 192.988281 292.355469 192.65625 292.601562 192.210938 C 292.855469 191.761719 292.917969 191.238281 292.773438 190.746094 C 292.628906 190.25 292.292969 189.84375 291.835938 189.601562 C 291.613281 189.480469 291.378906 189.402344 291.128906 189.367188 C 290.878906 189.347656 290.621094 189.367188 290.386719 189.4375 C 290.261719 189.472656 290.140625 189.523438 290.027344 189.582031 C 289.910156 189.644531 289.808594 189.710938 289.710938 189.78125 " fill-opacity="1" fill-rule="nonzero"/></g></g></g><g clip-path="url(#334add62fe)"><g clip-path="url(#e024fcf632)"><g clip-path="url(#6b32248494)"><path fill="#adb5bd" d="M 264.769531 170.140625 C 264.671875 170.222656 264.578125 170.316406 264.496094 170.40625 C 264.421875 170.511719 264.34375 170.613281 264.285156 170.722656 C 263.976562 171.28125 263.96875 171.980469 264.265625 172.535156 C 264.324219 172.652344 264.394531 172.75 264.476562 172.847656 C 264.542969 172.949219 264.640625 173.039062 264.730469 173.121094 C 264.832031 173.199219 264.933594 173.273438 265.046875 173.335938 C 265.15625 173.394531 265.277344 173.441406 265.398438 173.488281 C 265.515625 173.519531 265.644531 173.546875 265.765625 173.550781 C 265.890625 173.570312 266.011719 173.574219 266.140625 173.5625 C 266.257812 173.554688 266.386719 173.53125 266.511719 173.496094 C 267.003906 173.351562 267.414062 173.019531 267.65625 172.570312 C 267.78125 172.347656 267.855469 172.101562 267.886719 171.851562 C 267.910156 171.601562 267.890625 171.355469 267.816406 171.109375 C 267.675781 170.617188 267.339844 170.207031 266.894531 169.960938 C 266.449219 169.71875 265.921875 169.65625 265.429688 169.800781 C 265.308594 169.835938 265.1875 169.886719 265.082031 169.941406 C 264.96875 170.003906 264.867188 170.074219 264.769531 170.140625 " fill-opacity="1" fill-rule="nonzero"/></g></g></g><g clip-path="url(#32bbed9627)"><g clip-path="url(#e7645761dc)"><g clip-path="url(#f4e5f1ea4c)"><path fill="#adb5bd" d="M 271.839844 182.484375 C 271.738281 182.550781 271.644531 182.648438 271.566406 182.738281 C 271.488281 182.839844 271.410156 182.941406 271.351562 183.054688 C 271.058594 183.605469 271.046875 184.304688 271.335938 184.875 C 271.390625 184.980469 271.464844 185.09375 271.546875 185.1875 C 271.628906 185.285156 271.707031 185.367188 271.8125 185.457031 C 271.902344 185.539062 272 185.601562 272.113281 185.664062 C 272.558594 185.90625 273.097656 185.964844 273.578125 185.824219 C 274.070312 185.679688 274.484375 185.359375 274.726562 184.902344 C 274.980469 184.453125 275.042969 183.925781 274.898438 183.433594 C 274.753906 182.941406 274.425781 182.542969 273.960938 182.289062 C 273.515625 182.046875 273.003906 181.980469 272.496094 182.128906 C 272.386719 182.164062 272.265625 182.210938 272.152344 182.273438 C 272.046875 182.328125 271.933594 182.402344 271.839844 182.484375 " fill-opacity="1" fill-rule="nonzero"/></g></g></g><g clip-path="url(#4f8123b7ba)"><g clip-path="url(#4beef4cf3d)"><g clip-path="url(#d0fc556b7e)"><path fill="#adb5bd" d="M 287.675781 166.71875 C 287.628906 166.839844 287.613281 166.964844 287.597656 167.089844 C 287.578125 167.214844 287.578125 167.347656 287.585938 167.46875 C 287.640625 168.105469 288.023438 168.6875 288.582031 168.996094 C 289.023438 169.226562 289.5625 169.292969 290.042969 169.15625 C 290.539062 169.011719 290.949219 168.675781 291.203125 168.226562 C 291.324219 167.992188 291.402344 167.753906 291.421875 167.507812 C 291.457031 167.257812 291.421875 167 291.351562 166.765625 C 291.207031 166.273438 290.886719 165.859375 290.4375 165.605469 C 289.980469 165.363281 289.453125 165.304688 288.960938 165.449219 C 288.480469 165.589844 288.058594 165.925781 287.8125 166.371094 C 287.753906 166.484375 287.707031 166.601562 287.675781 166.71875 " fill-opacity="1" fill-rule="nonzero"/></g></g></g><g clip-path="url(#365afb614e)"><g clip-path="url(#be46213587)"><g clip-path="url(#ed765c3c55)"><path fill="#adb5bd" d="M 267.621094 153.789062 C 267.582031 153.921875 267.558594 154.035156 267.542969 154.160156 C 267.527344 154.285156 267.527344 154.417969 267.53125 154.539062 C 267.566406 154.796875 267.640625 155.039062 267.746094 155.265625 C 267.808594 155.378906 267.875 155.480469 267.957031 155.578125 C 268.039062 155.671875 268.121094 155.769531 268.222656 155.847656 C 268.3125 155.925781 268.417969 156.003906 268.527344 156.066406 C 268.972656 156.308594 269.511719 156.367188 270.003906 156.222656 C 270.238281 156.152344 270.46875 156.03125 270.664062 155.867188 C 270.859375 155.714844 271.015625 155.523438 271.140625 155.300781 C 271.394531 154.851562 271.441406 154.332031 271.300781 153.839844 C 271.15625 153.34375 270.835938 152.929688 270.375 152.691406 C 270.152344 152.570312 269.917969 152.492188 269.664062 152.457031 C 269.414062 152.421875 269.160156 152.460938 268.925781 152.527344 C 268.433594 152.671875 268.007812 153.007812 267.765625 153.453125 C 267.703125 153.566406 267.65625 153.671875 267.621094 153.789062 " fill-opacity="1" fill-rule="nonzero"/></g></g></g><g clip-path="url(#5775af10d7)"><g clip-path="url(#ee96b9c02d)"><g clip-path="url(#bc4f605d29)"><path fill="#00ff66" d="M 86.945312 72.898438 C 86.320312 72.582031 86.066406 71.820312 86.382812 71.199219 C 86.695312 70.578125 87.457031 70.332031 88.078125 70.644531 C 88.703125 70.960938 88.957031 71.71875 88.644531 72.339844 C 88.328125 72.960938 87.570312 73.210938 86.945312 72.898438 Z M 88.773438 72.839844 L 116 86.566406 L 119.179688 96.140625 L 127.238281 100.203125 L 139.746094 96.113281 L 164.59375 108.640625 L 183.164062 102.566406 C 183.519531 103.097656 184.195312 103.351562 184.832031 103.144531 C 185.597656 102.894531 186.011719 102.070312 185.757812 101.308594 C 185.507812 100.542969 184.679688 100.128906 183.914062 100.378906 C 183.277344 100.585938 182.886719 101.191406 182.917969 101.828125 L 164.65625 107.804688 L 139.808594 95.277344 L 127.300781 99.367188 L 119.816406 95.59375 L 116.636719 86.019531 L 89.121094 72.148438 C 89.289062 71.425781 88.949219 70.648438 88.253906 70.300781 C 87.4375 69.890625 86.441406 70.214844 86.035156 71.027344 C 85.625 71.835938 85.957031 72.832031 86.769531 73.242188 C 87.464844 73.59375 88.292969 73.40625 88.773438 72.839844 " fill-opacity="1" fill-rule="nonzero"/></g></g></g><g clip-path="url(#910d9f6a71)"><g clip-path="url(#cd6d4f88a4)"><g clip-path="url(#486130ca17)"><path fill="#00ff66" d="M 163.273438 160.175781 L 163.269531 160.167969 L 163.273438 160.175781 " fill-opacity="1" fill-rule="nonzero"/></g></g></g><g clip-path="url(#f9249f85c6)"><g clip-path="url(#3313fe33cf)"><g clip-path="url(#86c8a34b0e)"><path fill="#00ff66" d="M 163.195312 159.941406 L 163.179688 159.898438 L 163.195312 159.941406 " fill-opacity="1" fill-rule="nonzero"/></g></g></g><g clip-path="url(#b715449df6)"><g clip-path="url(#dbdca25ca1)"><g clip-path="url(#c047730ca8)"><path fill="#00ff66" d="M 163.5625 159.820312 C 163.34375 159.160156 163.703125 158.445312 164.363281 158.226562 C 165.027344 158.011719 165.746094 158.371094 165.964844 159.035156 C 166.183594 159.695312 165.824219 160.410156 165.164062 160.625 C 164.5 160.84375 163.78125 160.480469 163.5625 159.820312 Z M 164.625 157.785156 L 159.515625 142.390625 L 135.621094 130.34375 L 129.023438 110.480469 L 110.855469 101.324219 L 107.875 92.347656 L 91.527344 84.105469 C 91.652344 83.480469 91.351562 82.820312 90.753906 82.519531 C 90.03125 82.15625 89.15625 82.441406 88.792969 83.160156 C 88.429688 83.878906 88.722656 84.753906 89.441406 85.117188 C 90.042969 85.417969 90.75 85.269531 91.179688 84.796875 L 107.242188 92.894531 L 110.222656 101.867188 L 128.386719 111.027344 L 134.984375 130.890625 L 158.878906 142.9375 L 163.890625 158.027344 C 163.257812 158.417969 162.949219 159.203125 163.195312 159.941406 C 163.480469 160.804688 164.417969 161.277344 165.285156 160.996094 C 166.148438 160.710938 166.621094 159.777344 166.332031 158.914062 C 166.089844 158.175781 165.371094 157.726562 164.625 157.785156 " fill-opacity="1" fill-rule="nonzero"/></g></g></g><g clip-path="url(#a969133f88)"><g clip-path="url(#e63eb0dc51)"><g clip-path="url(#246c367ff1)"><path fill="#00ff66" d="M 163.179688 159.898438 C 163.167969 159.863281 163.15625 159.832031 163.148438 159.808594 C 163.160156 159.835938 163.167969 159.867188 163.179688 159.898438 " fill-opacity="1" fill-rule="nonzero"/></g></g></g><g clip-path="url(#a6262c7a98)"><g clip-path="url(#a56eb863ed)"><g clip-path="url(#5174fe6248)"><path fill="#00ff66" d="M 163.269531 160.167969 C 163.261719 160.140625 163.234375 160.070312 163.195312 159.941406 C 163.226562 160.035156 163.257812 160.128906 163.269531 160.167969 " fill-opacity="1" fill-rule="nonzero"/></g></g></g><g clip-path="url(#a1d86fc1a2)"><g clip-path="url(#d5a1213726)"><g clip-path="url(#8b8ee6dc70)"><path fill="#00ff66" d="M 163.273438 160.175781 C 163.277344 160.195312 163.277344 160.191406 163.273438 160.175781 " fill-opacity="1" fill-rule="nonzero"/></g></g></g><g clip-path="url(#7b26bc5d65)"><g clip-path="url(#56a72c52ca)"><g clip-path="url(#713914642e)"><path fill="#00ff66" d="M 163.113281 159.703125 C 163.121094 159.71875 163.132812 159.757812 163.148438 159.808594 C 163.128906 159.75 163.121094 159.71875 163.113281 159.703125 " fill-opacity="1" fill-rule="nonzero"/></g></g></g><g clip-path="url(#8094487f1c)"><g clip-path="url(#e811d79e0c)"><g clip-path="url(#afc1850e18)"><path fill="#00ff66" d="M 93.597656 92.035156 C 93.285156 92.652344 92.523438 92.902344 91.898438 92.589844 C 91.273438 92.273438 91.023438 91.511719 91.335938 90.894531 C 91.648438 90.273438 92.410156 90.023438 93.035156 90.335938 C 93.65625 90.652344 93.910156 91.410156 93.597656 92.035156 Z M 122.082031 115.117188 C 121.484375 114.8125 120.773438 114.964844 120.347656 115.4375 L 104.210938 107.300781 L 100.082031 94.871094 L 94.074219 91.839844 C 94.242188 91.117188 93.902344 90.34375 93.207031 89.992188 C 92.394531 89.582031 91.398438 89.90625 90.988281 90.71875 C 90.578125 91.527344 90.910156 92.523438 91.722656 92.933594 C 92.417969 93.285156 93.246094 93.097656 93.726562 92.53125 L 99.449219 95.417969 L 103.578125 107.847656 L 119.996094 116.128906 C 119.875 116.753906 120.171875 117.410156 120.773438 117.714844 C 121.492188 118.078125 122.371094 117.789062 122.734375 117.074219 C 123.09375 116.355469 122.804688 115.480469 122.082031 115.117188 " fill-opacity="1" fill-rule="nonzero"/></g></g></g><g clip-path="url(#dc49ba4c66)"><g clip-path="url(#54d4685a5b)"><g clip-path="url(#00a31ed82e)"><path fill="#00ff66" d="M 187.578125 140.828125 C 186.957031 140.511719 186.703125 139.753906 187.015625 139.132812 C 187.328125 138.511719 188.089844 138.261719 188.714844 138.574219 C 189.339844 138.890625 189.589844 139.652344 189.277344 140.273438 C 188.964844 140.890625 188.203125 141.140625 187.578125 140.828125 Z M 189.625 140.445312 C 190.035156 139.636719 189.703125 138.640625 188.890625 138.230469 C 188.191406 137.878906 187.367188 138.066406 186.886719 138.632812 L 174.328125 132.300781 L 169.679688 118.308594 L 140.8125 103.753906 C 140.9375 103.128906 140.636719 102.46875 140.035156 102.167969 C 139.316406 101.804688 138.4375 102.089844 138.078125 102.808594 C 137.714844 103.527344 138.007812 104.402344 138.726562 104.765625 C 139.328125 105.066406 140.035156 104.917969 140.464844 104.445312 L 169.042969 118.855469 L 173.691406 132.847656 L 186.535156 139.324219 C 186.371094 140.046875 186.710938 140.820312 187.40625 141.171875 C 188.21875 141.582031 189.214844 141.257812 189.625 140.445312 " fill-opacity="1" fill-rule="nonzero"/></g></g></g><g clip-path="url(#a9ac5bb123)"><g clip-path="url(#a296f0d583)"><g clip-path="url(#eef8bbccb1)"><path fill="#00ff66" d="M 142.152344 112.660156 C 141.839844 113.28125 141.078125 113.53125 140.457031 113.21875 C 139.832031 112.902344 139.578125 112.140625 139.890625 111.519531 C 140.203125 110.902344 140.96875 110.652344 141.589844 110.964844 C 142.214844 111.28125 142.464844 112.039062 142.152344 112.660156 Z M 162.320312 131.714844 L 158.605469 120.523438 L 142.632812 112.46875 C 142.800781 111.746094 142.460938 110.972656 141.765625 110.621094 C 140.949219 110.210938 139.953125 110.535156 139.542969 111.347656 C 139.136719 112.15625 139.464844 113.152344 140.28125 113.5625 C 140.976562 113.914062 141.800781 113.726562 142.285156 113.160156 L 157.96875 121.066406 L 160.996094 130.179688 L 148.765625 124.015625 L 143.761719 125.652344 C 143.40625 125.121094 142.726562 124.863281 142.089844 125.074219 C 141.324219 125.324219 140.910156 126.144531 141.164062 126.910156 C 141.417969 127.671875 142.242188 128.089844 143.007812 127.839844 C 143.644531 127.632812 144.039062 127.023438 144.003906 126.386719 L 148.703125 124.851562 L 162.320312 131.714844 " fill-opacity="1" fill-rule="nonzero"/></g></g></g><g clip-path="url(#bb143393e2)"><g clip-path="url(#165c9b946f)"><g clip-path="url(#b1843b1d87)"><path fill="#00ff66" d="M 175.96875 114.039062 C 175.65625 114.660156 174.894531 114.910156 174.269531 114.59375 C 173.644531 114.28125 173.394531 113.519531 173.707031 112.898438 C 174.019531 112.277344 174.78125 112.03125 175.40625 112.34375 C 176.027344 112.660156 176.28125 113.417969 175.96875 114.039062 Z M 176.445312 113.847656 C 176.613281 113.125 176.273438 112.347656 175.578125 112 C 174.765625 111.585938 173.769531 111.914062 173.359375 112.726562 C 172.949219 113.535156 173.28125 114.53125 174.09375 114.941406 C 174.789062 115.292969 175.617188 115.105469 176.097656 114.539062 L 181.03125 117.027344 L 189.25 114.335938 C 189.605469 114.867188 190.285156 115.125 190.921875 114.914062 C 191.6875 114.664062 192.101562 113.84375 191.847656 113.078125 C 191.59375 112.316406 190.769531 111.898438 190.003906 112.148438 C 189.367188 112.359375 188.972656 112.960938 189.003906 113.601562 L 181.089844 116.191406 L 176.445312 113.847656 " fill-opacity="1" fill-rule="nonzero"/></g></g></g><g clip-path="url(#609198f200)"><g clip-path="url(#d12fe84319)"><g clip-path="url(#502222bc18)"><path fill="#00ff66" d="M 155.832031 134.304688 C 155.515625 134.925781 154.753906 135.175781 154.132812 134.859375 C 153.507812 134.546875 153.253906 133.785156 153.570312 133.164062 C 153.882812 132.542969 154.644531 132.292969 155.265625 132.609375 C 155.890625 132.921875 156.144531 133.683594 155.832031 134.304688 Z M 176.972656 149.4375 C 176.371094 149.136719 175.664062 149.285156 175.234375 149.757812 L 168.046875 146.136719 L 165.613281 138.804688 L 156.308594 134.113281 C 156.476562 133.386719 156.136719 132.613281 155.441406 132.261719 C 154.625 131.851562 153.628906 132.179688 153.222656 132.988281 C 152.8125 133.800781 153.144531 134.796875 153.957031 135.207031 C 154.652344 135.554688 155.480469 135.367188 155.960938 134.804688 L 164.976562 139.347656 L 167.414062 146.679688 L 174.886719 150.449219 C 174.761719 151.074219 175.0625 151.734375 175.660156 152.035156 C 176.382812 152.398438 177.257812 152.113281 177.621094 151.394531 C 177.984375 150.679688 177.691406 149.800781 176.972656 149.4375 " fill-opacity="1" fill-rule="nonzero"/></g></g></g><g clip-path="url(#0036ea9ae1)"><g clip-path="url(#1d784c10d3)"><path fill="#00ff66" d="M 249.601562 177.03125 L 253.355469 177.03125 L 253.355469 180.785156 L 249.601562 180.785156 Z M 249.601562 177.03125 " fill-opacity="1" fill-rule="nonzero"/></g></g><g clip-path="url(#ffafc12783)"><g clip-path="url(#574faa7bf1)"><path fill="#00ff66" d="M 271.046875 182.492188 L 274.804688 182.492188 L 274.804688 186.246094 L 271.046875 186.246094 Z M 271.046875 182.492188 " fill-opacity="1" fill-rule="nonzero"/></g></g><g clip-path="url(#d8f11baa82)"><g clip-path="url(#2f22b7151b)"><path fill="#00ff66" d="M 288.863281 189.402344 L 292.617188 189.402344 L 292.617188 193.160156 L 288.863281 193.160156 Z M 288.863281 189.402344 " fill-opacity="1" fill-rule="nonzero"/></g></g><g clip-path="url(#ca3c57f284)"><g clip-path="url(#a3730247af)"><path fill="#00ff66" d="M 252.53125 161.796875 L 256.289062 161.796875 L 256.289062 165.550781 L 252.53125 165.550781 Z M 252.53125 161.796875 " fill-opacity="1" fill-rule="nonzero"/></g></g><g clip-path="url(#50fdaf90f4)"><g clip-path="url(#256a780d71)"><path fill="#00ff66" d="M 263.804688 169.796875 L 267.5625 169.796875 L 267.5625 173.554688 L 263.804688 173.554688 Z M 263.804688 169.796875 " fill-opacity="1" fill-rule="nonzero"/></g></g><g clip-path="url(#54f7db2bf6)"><g clip-path="url(#8bfd3bd121)"><path fill="#00ff66" d="M 267.601562 152.730469 L 271.355469 152.730469 L 271.355469 156.484375 L 267.601562 156.484375 Z M 267.601562 152.730469 " fill-opacity="1" fill-rule="nonzero"/></g></g><g clip-path="url(#746b551328)"><g clip-path="url(#94c41664e9)"><path fill="#00ff66" d="M 287.441406 165.457031 L 291.199219 165.457031 L 291.199219 169.210938 L 287.441406 169.210938 Z M 287.441406 165.457031 " fill-opacity="1" fill-rule="nonzero"/></g></g></svg>